<?xml version="1.0" encoding="UTF-8" standalone="no"?>
<!-- Generator: Adobe Illustrator 13.0.2, SVG Export Plug-In . SVG Version: 6.00 Build 14948)  -->

<svg
   xmlns:dc="http://purl.org/dc/elements/1.1/"
   xmlns:cc="http://creativecommons.org/ns#"
   xmlns:rdf="http://www.w3.org/1999/02/22-rdf-syntax-ns#"
   xmlns:svg="http://www.w3.org/2000/svg"
   xmlns="http://www.w3.org/2000/svg"
   xmlns:sodipodi="http://sodipodi.sourceforge.net/DTD/sodipodi-0.dtd"
   xmlns:inkscape="http://www.inkscape.org/namespaces/inkscape"
   version="1.1"
   id="Layer_1"
   x="0px"
   y="0px"
   width="16"
   height="16"
   viewBox="-0.258 -0.548 16 16"
   xml:space="preserve"
   inkscape:version="0.47pre4 r22446"
   sodipodi:docname="1206572035845249908johnny_automatic_NPS_map_pictographs_part_57.svg"><metadata
   id="metadata15"><rdf:RDF><cc:Work
       rdf:about=""><dc:format>image/svg+xml</dc:format><dc:type
         rdf:resource="http://purl.org/dc/dcmitype/StillImage" /><dc:title></dc:title></cc:Work></rdf:RDF></metadata><defs
   id="defs13"><inkscape:perspective
   sodipodi:type="inkscape:persp3d"
   inkscape:vp_x="0 : 61.769501 : 1"
   inkscape:vp_y="0 : 1000 : 0"
   inkscape:vp_z="123.547 : 61.769501 : 1"
   inkscape:persp3d-origin="61.773499 : 41.179667 : 1"
   id="perspective17" />
	
	
	
</defs><sodipodi:namedview
   pagecolor="#ffffff"
   bordercolor="#666666"
   borderopacity="1"
   objecttolerance="10"
   gridtolerance="10"
   guidetolerance="10"
   inkscape:pageopacity="0"
   inkscape:pageshadow="2"
   inkscape:window-width="1024"
   inkscape:window-height="697"
   id="namedview11"
   showgrid="false"
   inkscape:zoom="15.282623"
   inkscape:cx="16.747174"
   inkscape:cy="12.572726"
   inkscape:window-x="0"
   inkscape:window-y="25"
   inkscape:window-maximized="1"
   inkscape:current-layer="Layer_1" />
<g
   id="g2832"><rect
     transform="translate(-0.258,-0.548)"
     y="3.0441089"
     x="1.1123745"
     height="10.534841"
     width="14.133699"
     id="rect2828"
     style="fill:#ffffff;fill-opacity:1;stroke:none;stroke-width:0.40000001000000002;stroke-miterlimit:4;stroke-opacity:1;stroke-dasharray:none" /><path
     style="fill:#231f20"
     d="m 14.373082,11.646459 -3.974505,-3.9780816 3.97435,-3.978081 v 7.9561626 z m -12.4128071,0.755472 3.981657,-3.9743506 0.170094,0.162787 c 0.94018,0.8964905 2.434176,0.8964905 3.334243,0 L 9.6176065,8.4202734 13.617611,12.401931 H 1.9602749 z m -0.71427,-8.7116346 3.968442,3.978081 -3.975594,3.9780816 0.0072,-7.9561626 z M 13.610303,2.9310934 8.7211159,7.8165484 c -0.496755,0.500487 -1.385938,0.489448 -1.897308,-0.01943 L 1.9675829,2.9310974 H 13.610303 z M 0.16620482,1.8452294 c 0,0.455553 0,11.1677326 0,11.6268616 0.46286003,0 14.86035518,0 15.32321518,0 0,-0.459129 0,-11.1714646 0,-11.6268616 -0.46286,0 -14.86035515,0 -15.32321518,0 z"
     id="path9" /></g>
</svg>