<?xml version="1.0" encoding="UTF-8" standalone="no"?>
<!-- Created with Inkscape (http://www.inkscape.org/) -->

<svg
   xmlns:dc="http://purl.org/dc/elements/1.1/"
   xmlns:cc="http://creativecommons.org/ns#"
   xmlns:rdf="http://www.w3.org/1999/02/22-rdf-syntax-ns#"
   xmlns:svg="http://www.w3.org/2000/svg"
   xmlns="http://www.w3.org/2000/svg"
   xmlns:sodipodi="http://sodipodi.sourceforge.net/DTD/sodipodi-0.dtd"
   xmlns:inkscape="http://www.inkscape.org/namespaces/inkscape"
   id="svg2"
   version="1.1"
   inkscape:version="0.47pre4 r22446"
   width="16"
   height="16"
   sodipodi:docname="OSB_post office.svg">
  <metadata
     id="metadata8">
    <rdf:RDF>
      <cc:Work
         rdf:about="">
        <dc:format>image/svg+xml</dc:format>
        <dc:type
           rdf:resource="http://purl.org/dc/dcmitype/StillImage" />
      </cc:Work>
    </rdf:RDF>
  </metadata>
  <defs
     id="defs6">
    <inkscape:perspective
       sodipodi:type="inkscape:persp3d"
       inkscape:vp_x="0 : 0.5 : 1"
       inkscape:vp_y="0 : 1000 : 0"
       inkscape:vp_z="1 : 0.5 : 1"
       inkscape:persp3d-origin="0.5 : 0.33333333 : 1"
       id="perspective10" />
    <inkscape:perspective
       id="perspective3600"
       inkscape:persp3d-origin="0.5 : 0.33333333 : 1"
       inkscape:vp_z="1 : 0.5 : 1"
       inkscape:vp_y="0 : 1000 : 0"
       inkscape:vp_x="0 : 0.5 : 1"
       sodipodi:type="inkscape:persp3d" />
    <inkscape:perspective
       id="perspective3622"
       inkscape:persp3d-origin="0.5 : 0.33333333 : 1"
       inkscape:vp_z="1 : 0.5 : 1"
       inkscape:vp_y="0 : 1000 : 0"
       inkscape:vp_x="0 : 0.5 : 1"
       sodipodi:type="inkscape:persp3d" />
  </defs>
  <sodipodi:namedview
     pagecolor="#ffffff"
     bordercolor="#666666"
     borderopacity="1"
     objecttolerance="10"
     gridtolerance="10"
     guidetolerance="10"
     inkscape:pageopacity="0"
     inkscape:pageshadow="2"
     inkscape:window-width="1024"
     inkscape:window-height="697"
     id="namedview4"
     showgrid="false"
     inkscape:zoom="16"
     inkscape:cx="8.4356034"
     inkscape:cy="10.918489"
     inkscape:window-x="0"
     inkscape:window-y="25"
     inkscape:window-maximized="1"
     inkscape:current-layer="svg2" />
  <rect
     style="fill:#ffff00;fill-opacity:1;stroke:#000000;stroke-width:0.40230682;stroke-miterlimit:4;stroke-dasharray:none"
     id="rect3645"
     width="15.651168"
     height="12.247693"
     x="0.17441607"
     y="1.8761535" />
  <path
     id="path2818-8"
     style="fill:#000000;stroke:none"
     d="m 8.529218,3.2585123 c 0.3200833,-2.15e-5 0.6459343,0.036051 0.9711431,0.1111016 2.3082619,0.5326765 3.7492149,2.8321706 3.2239149,5.1404089 l 0.0248,0.00492 c 0,0 1.054926,-0.2684959 1.395706,-3.5582108 l 1.232032,0.4930122 C 14.844815,15.398475 0.88017595,15.336465 0.62318555,4.2177514 L 3.7617912,3.7961622 c -0.065288,2.428316 0.5287222,3.0761116 0.5287222,3.0761116 l 0.00198,-0.00889 C 4.3074554,6.7718938 4.3252164,6.6809211 4.3460624,6.5905907 4.8046917,4.603164 6.5731565,3.2586379 8.5292194,3.2585057 z M 5.6048278,7.5023121 c 0,1.6175186 1.3112591,2.9287779 2.928778,2.9287779 1.6175192,0 2.9287782,-1.3112593 2.9287782,-2.9287779 0,-1.6175198 -1.311259,-2.9287779 -2.9287782,-2.9287779 -1.6175189,0 -2.928778,1.3112581 -2.928778,2.9287779 z" />
</svg>
