<?xml version="1.0" encoding="UTF-8" standalone="no"?>
<!-- Created with Inkscape (http://www.inkscape.org/) -->

<svg
   xmlns:dc="http://purl.org/dc/elements/1.1/"
   xmlns:cc="http://creativecommons.org/ns#"
   xmlns:rdf="http://www.w3.org/1999/02/22-rdf-syntax-ns#"
   xmlns:svg="http://www.w3.org/2000/svg"
   xmlns="http://www.w3.org/2000/svg"
   xmlns:xlink="http://www.w3.org/1999/xlink"
   xmlns:sodipodi="http://sodipodi.sourceforge.net/DTD/sodipodi-0.dtd"
   xmlns:inkscape="http://www.inkscape.org/namespaces/inkscape"
   width="16"
   height="16"
   id="svg21438"
   sodipodi:version="0.32"
   inkscape:version="0.47pre4 r22446"
   version="1.0"
   sodipodi:docname="OSB_wlan.svg"
   inkscape:output_extension="org.inkscape.output.svg.inkscape">
  <defs
     id="defs21440">
    <linearGradient
       inkscape:collect="always"
       xlink:href="#linearGradient12001"
       id="linearGradient14375"
       gradientUnits="userSpaceOnUse"
       x1="-345"
       y1="1860.5236"
       x2="-200.80377"
       y2="1860.5236" />
    <linearGradient
       inkscape:collect="always"
       xlink:href="#linearGradient12001"
       id="linearGradient14373"
       gradientUnits="userSpaceOnUse"
       x1="-345"
       y1="1860.5236"
       x2="-166.2061"
       y2="1860.5236" />
    <radialGradient
       inkscape:collect="always"
       xlink:href="#linearGradient12001"
       id="radialGradient14371"
       gradientUnits="userSpaceOnUse"
       gradientTransform="scale(1.00676,0.993283)"
       cx="227.45299"
       cy="187.70264"
       fx="227.45299"
       fy="187.70264"
       r="459.39603" />
    <linearGradient
       inkscape:collect="always"
       xlink:href="#linearGradient2213"
       id="linearGradient14369"
       gradientUnits="userSpaceOnUse"
       gradientTransform="matrix(0.406492,0,0,0.173794,-19.7328,-4.6576)"
       x1="190.87228"
       y1="207.6499"
       x2="289.50995"
       y2="207.6499" />
    <linearGradient
       inkscape:collect="always"
       xlink:href="#linearGradient2318"
       id="linearGradient14367"
       gradientUnits="userSpaceOnUse"
       gradientTransform="matrix(1,0,0,0.919332,-248.851,-96.6436)"
       x1="319.68762"
       y1="238.65785"
       x2="319.68762"
       y2="123.06004" />
    <linearGradient
       inkscape:collect="always"
       xlink:href="#linearGradient2318"
       id="linearGradient14365"
       gradientUnits="userSpaceOnUse"
       gradientTransform="matrix(1,0,0,0.919332,-249.36,-97.221)"
       x1="319.68762"
       y1="206.6543"
       x2="319.68762"
       y2="123.06004" />
    <linearGradient
       id="linearGradient2318">
      <stop
         style="stop-color: rgb(255, 199, 149); stop-opacity: 0;"
         offset="0"
         id="stop2320" />
      <stop
         id="stop2322"
         offset="1"
         style="stop-color: rgb(255, 255, 255); stop-opacity: 1;" />
    </linearGradient>
    <linearGradient
       inkscape:collect="always"
       xlink:href="#linearGradient2318"
       id="linearGradient14363"
       gradientUnits="userSpaceOnUse"
       gradientTransform="matrix(1.1175,0,0,0.919332,-287.738,-97.9095)"
       x1="319.68762"
       y1="220.44333"
       x2="319.68762"
       y2="123.06004" />
    <linearGradient
       id="linearGradient2213">
      <stop
         style="stop-color: rgb(245, 222, 206); stop-opacity: 1;"
         offset="0"
         id="stop2215" />
      <stop
         id="stop2217"
         offset="0.5"
         style="stop-color: rgb(236, 193, 162); stop-opacity: 1;" />
      <stop
         style="stop-color: rgb(245, 222, 206); stop-opacity: 1;"
         offset="1"
         id="stop2219" />
    </linearGradient>
    <linearGradient
       inkscape:collect="always"
       xlink:href="#linearGradient2213"
       id="linearGradient14361"
       gradientUnits="userSpaceOnUse"
       gradientTransform="matrix(0.689669,0,0,0.294865,-87.7004,17.9928)"
       x1="190.87228"
       y1="207.6499"
       x2="289.50995"
       y2="207.6499" />
    <linearGradient
       id="linearGradient12001">
      <stop
         id="stop12003"
         offset="0"
         style="stop-color: rgb(27, 74, 120); stop-opacity: 1;" />
      <stop
         id="stop12005"
         offset="1"
         style="stop-color: rgb(93, 172, 209); stop-opacity: 1;" />
    </linearGradient>
    <linearGradient
       inkscape:collect="always"
       xlink:href="#linearGradient12001"
       id="linearGradient14359"
       gradientUnits="userSpaceOnUse"
       gradientTransform="matrix(1,0,0,0.929817,-162.382,-102.469)"
       x1="190.87228"
       y1="207.6499"
       x2="289.50995"
       y2="207.6499" />
    <inkscape:perspective
       sodipodi:type="inkscape:persp3d"
       inkscape:vp_x="0 : 526.18109 : 1"
       inkscape:vp_y="0 : 1000 : 0"
       inkscape:vp_z="744.09448 : 526.18109 : 1"
       inkscape:persp3d-origin="372.04724 : 350.78739 : 1"
       id="perspective21446" />
  </defs>
  <sodipodi:namedview
     id="base"
     pagecolor="#ffffff"
     bordercolor="#666666"
     borderopacity="1.0"
     gridtolerance="10000"
     guidetolerance="10"
     objecttolerance="10"
     inkscape:pageopacity="0.0"
     inkscape:pageshadow="2"
     inkscape:zoom="15.839192"
     inkscape:cx="4.0168116"
     inkscape:cy="9.2891545"
     inkscape:document-units="px"
     inkscape:current-layer="g3208"
     showgrid="false"
     units="in"
     inkscape:window-width="1024"
     inkscape:window-height="697"
     inkscape:window-x="0"
     inkscape:window-y="25"
     inkscape:window-maximized="1" />
  <metadata
     id="metadata21443">
    <rdf:RDF>
      <cc:Work
         rdf:about="">
        <dc:format>image/svg+xml</dc:format>
        <dc:type
           rdf:resource="http://purl.org/dc/dcmitype/StillImage" />
        <dc:title />
      </cc:Work>
    </rdf:RDF>
  </metadata>
  <g
     inkscape:label="Layer 1"
     inkscape:groupmode="layer"
     id="layer1"
     transform="translate(-70.3126,-165.10661)">
    <g
       transform="translate(-21.737,312.569)"
       style="display:inline"
       id="g21428">
      <g
         id="g3208"
         transform="matrix(0.0992602,0,0,0.0992602,83.06724,-116.58257)">
        <path
           transform="matrix(10.074531,0,0,10.074531,90.493068,-311.09972)"
           style="fill:#ffffff;fill-opacity:1;stroke:none"
           d="M 2.0203052,0.15323204 C 3.4784129,0.75256421 5.9695539,3.7217837 7.954951,3.7519006 9.938387,3.7819878 12.445287,0.9627043 13.763328,0.21636657 16.091521,3.6369082 15.751172,7.5144796 14.015866,10.759834 11.333542,9.3963677 9.1678818,6.946052 7.8918165,7.0348966 6.6157511,7.1237413 4.3919495,9.1858567 1.8309015,10.759834 0.53254436,7.7881252 -0.76362785,4.7309318 2.0203052,0.15323204 z"
           id="rect4015"
           sodipodi:nodetypes="czcczcc" />
        <g
           style="fill:#000000;stroke:#000000;stroke-width:7.8086586;stroke-miterlimit:4;stroke-dasharray:none"
           transform="matrix(1.33146,0,0,1.33146,-42.1146,43.586991)"
           id="g21509">
          <path
             style="fill:#000000;fill-opacity:1;fill-rule:nonzero;stroke:#4d4d4d;stroke-width:1.75543485;stroke-linecap:round;stroke-linejoin:round;stroke-miterlimit:4;stroke-opacity:1;stroke-dasharray:none;stroke-dashoffset:0"
             id="path14333"
             d="m 167.774,-225.2574 c 0,4.14213 -3.35789,7.49997 -7.50002,7.49997 -4.14213,0 -7.49998,-3.35784 -7.49998,-7.49997 0,-4.14219 3.35785,-7.50003 7.49998,-7.50003 4.14213,0 7.50002,3.35784 7.50002,7.50003 l 0,0 z" />
          <path
             style="font-size:medium;font-style:normal;font-variant:normal;font-weight:normal;font-stretch:normal;text-indent:0;text-align:start;text-decoration:none;line-height:normal;letter-spacing:normal;word-spacing:normal;text-transform:none;direction:ltr;block-progression:tb;writing-mode:lr-tb;text-anchor:start;color:#000000;fill:#000000;fill-opacity:1;fill-rule:evenodd;stroke:#4d4d4d;stroke-width:1.75543485;marker:none;visibility:visible;display:inline;overflow:visible;enable-background:accumulate;font-family:Andale Mono;-inkscape-font-specification:Andale Mono;stroke-miterlimit:4;stroke-dasharray:none"
             d="m 174.6875,-240.84375 a 3.9047197,3.9047197 0 0 0 -2.40625,6.65625 c 0,0 2.92677,2.77505 2.9375,9.34375 2e-5,0.012 0,0.0192 0,0.0312 -0.0108,6.56851 -2.9375,9.34375 -2.9375,9.34375 a 3.9047197,3.9047197 0 1 0 5.5625,5.4375 c 0,0 4.60369,-5.16444 5.03125,-13.6875 0.001,-0.0235 0.0301,-0.0389 0.0312,-0.0625 a 3.9047197,3.9047197 0 0 0 0.125,-1.03125 c 0,-0.0114 2e-5,-0.0198 0,-0.0312 A 3.9047197,3.9047197 0 0 0 182.875,-226 c -0.44856,-8.48317 -5.03125,-13.625 -5.03125,-13.625 a 3.9047197,3.9047197 0 0 0 -3.15625,-1.21875 z"
             id="path14345" />
          <path
             style="font-size:medium;font-style:normal;font-variant:normal;font-weight:normal;font-stretch:normal;text-indent:0;text-align:start;text-decoration:none;line-height:normal;letter-spacing:normal;word-spacing:normal;text-transform:none;direction:ltr;block-progression:tb;writing-mode:lr-tb;text-anchor:start;color:#000000;fill:#000000;fill-opacity:1;fill-rule:evenodd;stroke:#4d4d4d;stroke-width:1.75543485;marker:none;visibility:visible;display:inline;overflow:visible;enable-background:accumulate;font-family:Andale Mono;-inkscape-font-specification:Andale Mono;stroke-miterlimit:4;stroke-dasharray:none"
             d="m 188.96875,-252.9375 a 3.9047197,3.9047197 0 0 0 -2.8125,6.6875 c 0,0 6.99917,6.91789 7.03125,21.375 7e-5,0.0332 0,0.0605 0,0.0937 -0.0321,14.45711 -7.03125,21.375 -7.03125,21.375 a 3.9047197,3.9047197 0 1 0 5.59375,5.4375 c 0,0 8.91126,-9.45106 9.1875,-26.15625 a 3.9047197,3.9047197 0 0 0 0.0312,-0.125 3.9047197,3.9047197 0 0 0 0.0312,-0.53125 c 2e-5,-0.011 -2e-5,-0.0203 0,-0.0312 -1.1e-4,-0.16526 -0.0294,-0.30487 -0.0312,-0.46875 a 3.9047197,3.9047197 0 0 0 -0.0312,-0.375 c -0.32036,-16.62427 -9.1875,-26.0625 -9.1875,-26.0625 a 3.9047197,3.9047197 0 0 0 -2.78125,-1.21875 z"
             id="path14347" />
          <path
             style="font-size:medium;font-style:normal;font-variant:normal;font-weight:normal;font-stretch:normal;text-indent:0;text-align:start;text-decoration:none;line-height:normal;letter-spacing:normal;word-spacing:normal;text-transform:none;direction:ltr;block-progression:tb;writing-mode:lr-tb;text-anchor:start;color:#000000;fill:#000000;fill-opacity:1;fill-rule:evenodd;stroke:#4d4d4d;stroke-width:1.75543485;marker:none;visibility:visible;display:inline;overflow:visible;enable-background:accumulate;font-family:Andale Mono;-inkscape-font-specification:Andale Mono;stroke-miterlimit:4;stroke-dasharray:none"
             d="m 203.71875,-265 a 3.9047197,3.9047197 0 0 0 -2.40625,6.65625 c 0,0 11.03936,11.09291 11.09375,33.4375 1.3e-4,0.0551 0,0.10097 0,0.15625 -0.0546,22.34414 -11.09375,33.40625 -11.09375,33.40625 a 3.9047197,3.9047197 0 1 0 5.5625,5.46875 c 0,0 12.98311,-13.6335 13.28125,-38.21875 a 3.9047197,3.9047197 0 0 0 0,-0.0937 3.9047197,3.9047197 0 0 0 0.0625,-0.5625 c 8e-5,-0.033 -3e-5,-0.0607 0,-0.0937 -2.3e-4,-0.16512 -0.0299,-0.3046 -0.0312,-0.46875 a 3.9047197,3.9047197 0 0 0 -0.0312,-0.375 C 219.81486,-250.19241 206.875,-263.78125 206.875,-263.78125 A 3.9047197,3.9047197 0 0 0 203.71875,-265 z"
             id="path14349" />
          <path
             style="font-size:medium;font-style:normal;font-variant:normal;font-weight:normal;font-stretch:normal;text-indent:0;text-align:start;text-decoration:none;line-height:normal;letter-spacing:normal;word-spacing:normal;text-transform:none;direction:ltr;block-progression:tb;writing-mode:lr-tb;text-anchor:start;color:#000000;fill:#000000;fill-opacity:1;fill-rule:evenodd;stroke:#4d4d4d;stroke-width:1.75543485;marker:none;visibility:visible;display:inline;overflow:visible;enable-background:accumulate;font-family:Andale Mono;-inkscape-font-specification:Andale Mono;stroke-miterlimit:4;stroke-dasharray:none"
             d="m 144.65625,-240.84375 a 3.9047197,3.9047197 0 0 0 -2.6875,1.21875 c 0,0 -4.55119,5.14231 -5,13.625 a 3.9047197,3.9047197 0 0 0 -0.0312,0.0937 3.9047197,3.9047197 0 0 0 -0.125,1.0625 c 0,0.0115 -2e-5,0.0198 0,0.0312 a 3.9047197,3.9047197 0 0 0 0.15625,1.09375 3.9047197,3.9047197 0 0 0 0,0.0625 c 0.44881,8.48269 5,13.625 5,13.625 a 3.9047197,3.9047197 0 1 0 5.59375,-5.4375 c 0,0 -2.95796,-2.77519 -2.96875,-9.34375 0,-0.012 -2e-5,-0.0193 0,-0.0312 0.0107,-6.56875 2.96875,-9.34375 2.96875,-9.34375 a 3.9047197,3.9047197 0 0 0 -2.90625,-6.65625 z"
             id="path14351" />
          <path
             style="font-size:medium;font-style:normal;font-variant:normal;font-weight:normal;font-stretch:normal;text-indent:0;text-align:start;text-decoration:none;line-height:normal;letter-spacing:normal;word-spacing:normal;text-transform:none;direction:ltr;block-progression:tb;writing-mode:lr-tb;text-anchor:start;color:#000000;fill:#000000;fill-opacity:1;fill-rule:evenodd;stroke:#4d4d4d;stroke-width:1.75543485;marker:none;visibility:visible;display:inline;overflow:visible;enable-background:accumulate;font-family:Andale Mono;-inkscape-font-specification:Andale Mono;stroke-miterlimit:4;stroke-dasharray:none"
             d="m 131.1875,-252.9375 a 3.9047197,3.9047197 0 0 0 -2.6875,1.21875 c 0,0 -8.91126,9.48231 -9.1875,26.1875 a 3.9047197,3.9047197 0 0 0 -0.0312,0.375 c -4.6e-4,0.0552 -0.031,0.10086 -0.0312,0.15625 a 3.9047197,3.9047197 0 0 0 0,0.125 c 0,0.022 -3e-5,0.0406 0,0.0625 -1e-5,0.011 0,0.0203 0,0.0312 A 3.9047197,3.9047197 0 0 0 119.3125,-224 c 0.32036,16.62427 9.1875,26.03125 9.1875,26.03125 a 3.9047197,3.9047197 0 1 0 5.59375,-5.4375 c 0,0 -6.99917,-6.91789 -7.03125,-21.375 -7e-5,-0.0332 0,-0.0605 0,-0.0937 0.0321,-14.45711 7.03125,-21.375 7.03125,-21.375 a 3.9047197,3.9047197 0 0 0 -2.90625,-6.6875 z"
             id="path14353" />
          <path
             style="font-size:medium;font-style:normal;font-variant:normal;font-weight:normal;font-stretch:normal;text-indent:0;text-align:start;text-decoration:none;line-height:normal;letter-spacing:normal;word-spacing:normal;text-transform:none;direction:ltr;block-progression:tb;writing-mode:lr-tb;text-anchor:start;color:#000000;fill:#000000;fill-opacity:1;fill-rule:evenodd;stroke:#4d4d4d;stroke-width:1.75543485;marker:none;visibility:visible;display:inline;overflow:visible;enable-background:accumulate;font-family:Andale Mono;-inkscape-font-specification:Andale Mono;stroke-miterlimit:4;stroke-dasharray:none"
             d="m 116.03125,-265 a 3.9047197,3.9047197 0 0 0 -2.65625,1.21875 c 0,0 -12.98413,13.6316 -13.28125,38.21875 a 3.9047197,3.9047197 0 0 0 -0.0312,0.375 c -1.4e-4,0.0218 1.2e-4,0.0407 0,0.0625 a 3.9047197,3.9047197 0 0 0 -0.0312,0.21875 c -1.3e-4,0.0548 0,0.10139 0,0.15625 a 3.9047197,3.9047197 0 0 0 0.0312,0.4375 c 0.21889,24.73135 13.3125,38.4375 13.3125,38.4375 a 3.9114341,3.9114341 0 1 0 5.59375,-5.46875 c 0,0 -11.07043,-11.06206 -11.125,-33.40625 -1.4e-4,-0.0553 0,-0.10078 0,-0.15625 0.0544,-22.34464 11.125,-33.4375 11.125,-33.4375 A 3.9047197,3.9047197 0 0 0 116.03125,-265 z"
             id="path14355" />
        </g>
        <path
           transform="matrix(10.074531,0,0,10.074531,90.493068,-311.09972)"
           style="fill:#ffffff;fill-opacity:1;stroke:none"
           d="m 0.12626907,11.454313 15.90990293,0 0,4.419418 -15.90990293,0 0,-4.419418 z"
           id="rect4013" />
        <g
           transform="scale(0.8796481,1.1368182)"
           style="font-size:46.13513947000000570px;font-style:normal;font-weight:normal;fill:#000000;fill-opacity:1;stroke:none;font-family:Bitstream Vera Sans;stroke-width:1.00745314999999991;stroke-miterlimit:4;stroke-dasharray:none"
           id="text3204" />
        <g
           transform="scale(0.93452729,1.0700597)"
           style="font-size:57.86963271999999847px;font-style:normal;font-variant:normal;font-weight:bold;font-stretch:normal;fill:#000000;fill-opacity:1;stroke:#4d4d4d;font-family:Arial;-inkscape-font-specification:Andale Mono Bold;stroke-width:1.51117971;stroke-miterlimit:4;stroke-dasharray:none"
           id="text4256">
          <path
             d="m 108.94889,-142.47 -9.889834,-41.42426 8.561764,0 6.24472,28.45445 7.57279,-28.45445 9.94634,0 7.26196,28.93482 6.35775,-28.93482 8.42048,0 -10.05937,41.42426 -8.87259,0 -8.25094,-30.9693 -8.22269,30.9693 -9.07038,0"
             style="stroke:#4d4d4d;stroke-width:1.51117971;stroke-miterlimit:4;stroke-dasharray:none"
             id="path4261" />
          <path
             d="m 157.88942,-142.47 0,-41.08518 8.36397,0 0,34.10578 20.7969,0 0,6.9794 -29.16087,0"
             style="stroke:#4d4d4d;stroke-width:1.51117971;stroke-miterlimit:4;stroke-dasharray:none"
             id="path4263" />
          <path
             d="m 230.39599,-142.47 -9.09864,0 -3.61685,-9.40947 -16.5584,0 -3.41906,9.40947 -8.87259,0 16.13455,-41.42426 8.84434,0 16.58665,41.42426 m -15.39987,-16.38886 -5.70785,-15.37162 -5.59482,15.37162 11.30267,0"
             style="stroke:#4d4d4d;stroke-width:1.51117971;stroke-miterlimit:4;stroke-dasharray:none"
             id="path4265" />
          <path
             d="m 234.94532,-142.47 0,-41.42426 8.13792,0 16.95399,27.66327 0,-27.66327 7.77058,0 0,41.42426 -8.39223,0 -16.69968,-27.01336 0,27.01336 -7.77058,0"
             style="stroke:#4d4d4d;stroke-width:1.51117971;stroke-miterlimit:4;stroke-dasharray:none"
             id="path4267" />
        </g>
      </g>
    </g>
  </g>
</svg>
