<?xml version="1.0" encoding="UTF-8" standalone="no"?>
<svg
   xmlns:dc="http://purl.org/dc/elements/1.1/"
   xmlns:cc="http://creativecommons.org/ns#"
   xmlns:rdf="http://www.w3.org/1999/02/22-rdf-syntax-ns#"
   xmlns:svg="http://www.w3.org/2000/svg"
   xmlns="http://www.w3.org/2000/svg"
   xmlns:sodipodi="http://sodipodi.sourceforge.net/DTD/sodipodi-0.dtd"
   xmlns:inkscape="http://www.inkscape.org/namespaces/inkscape"
   height="16"
   id="svg1618"
   inkscape:version="0.47pre4 r22446"
   sodipodi:docname="OSB_baby hatch.svg"
   sodipodi:version="0.32"
   width="16"
   version="1.1">
  <metadata
     id="metadata3">
    <rdf:RDF>
      <cc:Work
         rdf:about="">
        <dc:title>AIGA_Symbol_Signs</dc:title>
        <dc:description>EPS converted from  http://aiga.org</dc:description>
        <dc:subject>
          <rdf:Bag>
            <rdf:li>symbol</rdf:li>
            <rdf:li>mapsym</rdf:li>
          </rdf:Bag>
        </dc:subject>
        <dc:publisher>
          <cc:Agent
             rdf:about="http://www.openclipart.org/">
            <dc:title>Open Clip Art Library</dc:title>
          </cc:Agent>
        </dc:publisher>
        <dc:creator>
          <cc:Agent>
            <dc:title>Jean-Victor Balin</dc:title>
          </cc:Agent>
        </dc:creator>
        <dc:rights>
          <cc:Agent>
            <dc:title>Jean-Victor Balin</dc:title>
          </cc:Agent>
        </dc:rights>
        <dc:date />
        <dc:format>image/svg+xml</dc:format>
        <dc:type
           rdf:resource="http://purl.org/dc/dcmitype/StillImage" />
        <cc:license
           rdf:resource="http://web.resource.org/cc/PublicDomain" />
        <dc:language>en</dc:language>
      </cc:Work>
      <cc:License
         rdf:about="http://web.resource.org/cc/PublicDomain">
        <cc:permits
           rdf:resource="http://web.resource.org/cc/Reproduction" />
        <cc:permits
           rdf:resource="http://web.resource.org/cc/Distribution" />
        <cc:permits
           rdf:resource="http://web.resource.org/cc/DerivativeWorks" />
      </cc:License>
    </rdf:RDF>
  </metadata>
  <sodipodi:namedview
     bordercolor="#666666"
     borderopacity="1.0"
     id="base"
     inkscape:current-layer="svg1618"
     inkscape:cx="7.9416141"
     inkscape:cy="5.8444519"
     inkscape:pageopacity="0.0"
     inkscape:pageshadow="2"
     inkscape:window-height="697"
     inkscape:window-width="1024"
     inkscape:window-x="0"
     inkscape:window-y="25"
     inkscape:zoom="27.786135"
     pagecolor="#ffffff"
     showgrid="false"
     inkscape:window-maximized="1" />
  <defs
     id="defs1620">
    <inkscape:perspective
       sodipodi:type="inkscape:persp3d"
       inkscape:vp_x="0 : 211.60249 : 1"
       inkscape:vp_y="0 : 1000 : 0"
       inkscape:vp_z="297.686 : 211.60249 : 1"
       inkscape:persp3d-origin="148.843 : 141.06833 : 1"
       id="perspective18" />
    <marker
       id="ArrowEnd"
       markerHeight="3"
       markerUnits="strokeWidth"
       markerWidth="4"
       orient="auto"
       refX="0"
       refY="5"
       viewBox="0 0 10 10">
      <path
         d="M 0,0 10,5 0,10 z"
         id="path1623" />
    </marker>
    <marker
       id="ArrowStart"
       markerHeight="3"
       markerUnits="strokeWidth"
       markerWidth="4"
       orient="auto"
       refX="10"
       refY="5"
       viewBox="0 0 10 10">
      <path
         d="M 10,0 0,5 10,10 z"
         id="path1626" />
    </marker>
    <inkscape:perspective
       id="perspective2868"
       inkscape:persp3d-origin="0.5 : 0.33333333 : 1"
       inkscape:vp_z="1 : 0.5 : 1"
       inkscape:vp_y="0 : 1000 : 0"
       inkscape:vp_x="0 : 0.5 : 1"
       sodipodi:type="inkscape:persp3d" />
  </defs>
  <rect
     style="fill:#ffffff;fill-opacity:1;fill-rule:evenodd;stroke:none"
     id="rect2824"
     width="4.682467"
     height="2.888747"
     x="5.6494975"
     y="8.9254036" />
  <g
     id="g1628"
     transform="matrix(0.03715048,0,0,0.03715048,2.47042,0.13886533)">
    <g
       id="g1630">
      <path
         d="m 148.846,119.556 c 33.013,0 59.776,-26.764 59.776,-59.778 C 208.622,26.764 181.859,0 148.846,0 115.832,0 89.0711,26.764 89.0711,59.778 c 0,33.014 26.7609,59.778 59.7749,59.778 z"
         id="path1632"
         style="fill:#000000;stroke:none" />
      <path
         d="M 148.846,59.778"
         id="path1634"
         style="fill:#000000;stroke:none" />
    </g>
    <path
       d="m 148.748,244.516 -63.1889,0 0,-45.627 -48.325,48.646 c -21.832,21.832 -51.424,-6.162 -29.55601,-28.033 L 87.6941,139.333 c 6.49,-6.444 13.5929,-10.544 24.8649,-10.544 l 36.189,0 0.06,0 35.501,0 c 11.272,0 18.875,3.975 25.554,10.544 l 80.829,80.955 c 20.819,20.819 -9.572,49.079 -29.541,28.046 l -49.592,-49.695 0,45.877 -62.751,0 -0.06,0 z"
       id="path1636"
       style="fill:#000000;stroke:none" />
    <path
       d="m 85.5701,268.179 47.4889,47.493 -44.553304,43.51866 22.163534,31.85104 C 123.03557,414.06618 86.197642,437.443 64.392642,415.638 L 31.141513,369.48263 C 16.109292,347.42123 25.349917,325.53396 45.1311,308.659 c 0.04734,-0.0404 40.439,-40.48 40.439,-40.48 z"
       id="path1640"
       style="fill:#000000;stroke:none"
       sodipodi:nodetypes="ccccccsc" />
    <path
       d="m 210.81378,268.179 -47.4889,47.493 44.55331,43.51866 -22.16354,31.85104 c -12.36634,23.02448 24.47159,46.40129 46.27659,24.59629 l 33.25114,-46.15536 c 15.03222,-22.0614 5.79159,-43.94867 -13.98959,-60.82363 -0.0473,-0.0404 -40.43901,-40.48 -40.43901,-40.48 z"
       id="path1640-3"
       style="fill:#000000;stroke:none"
       sodipodi:nodetypes="ccccccsc" />
  </g>
</svg>
