<?xml version="1.0" encoding="UTF-8" standalone="no"?>
<!-- Created with Inkscape (http://www.inkscape.org/) -->

<svg
   xmlns:dc="http://purl.org/dc/elements/1.1/"
   xmlns:cc="http://creativecommons.org/ns#"
   xmlns:rdf="http://www.w3.org/1999/02/22-rdf-syntax-ns#"
   xmlns:svg="http://www.w3.org/2000/svg"
   xmlns="http://www.w3.org/2000/svg"
   xmlns:sodipodi="http://sodipodi.sourceforge.net/DTD/sodipodi-0.dtd"
   xmlns:inkscape="http://www.inkscape.org/namespaces/inkscape"
   width="16"
   height="16"
   id="svg2"
   version="1.1"
   inkscape:version="0.47pre4 r22446"
   sodipodi:docname="OSB_dentist.svg">
  <defs
     id="defs4">
    <inkscape:perspective
       sodipodi:type="inkscape:persp3d"
       inkscape:vp_x="0 : 526.18109 : 1"
       inkscape:vp_y="0 : 1000 : 0"
       inkscape:vp_z="744.09448 : 526.18109 : 1"
       inkscape:persp3d-origin="372.04724 : 350.78739 : 1"
       id="perspective10" />
    <inkscape:perspective
       id="perspective2824"
       inkscape:persp3d-origin="0.5 : 0.33333333 : 1"
       inkscape:vp_z="1 : 0.5 : 1"
       inkscape:vp_y="0 : 1000 : 0"
       inkscape:vp_x="0 : 0.5 : 1"
       sodipodi:type="inkscape:persp3d" />
  </defs>
  <sodipodi:namedview
     id="base"
     pagecolor="#ffffff"
     bordercolor="#666666"
     borderopacity="1.0"
     inkscape:pageopacity="0.0"
     inkscape:pageshadow="2"
     inkscape:zoom="22.4"
     inkscape:cx="9.7699191"
     inkscape:cy="9.5075949"
     inkscape:document-units="px"
     inkscape:current-layer="layer1"
     showgrid="false"
     inkscape:window-width="1024"
     inkscape:window-height="697"
     inkscape:window-x="0"
     inkscape:window-y="25"
     inkscape:window-maximized="1" />
  <metadata
     id="metadata7">
    <rdf:RDF>
      <cc:Work
         rdf:about="">
        <dc:format>image/svg+xml</dc:format>
        <dc:type
           rdf:resource="http://purl.org/dc/dcmitype/StillImage" />
        <dc:title />
      </cc:Work>
    </rdf:RDF>
  </metadata>
  <g
     inkscape:label="Ebene 1"
     inkscape:groupmode="layer"
     id="layer1"
     transform="translate(-82.95005,-293.01775)">
    <path
       id="path3611"
       style="fill:#ffffff;stroke:#000000;stroke-width:0.67420745000000004;stroke-linecap:butt;stroke-linejoin:miter;stroke-miterlimit:4;stroke-opacity:1;stroke-dasharray:none"
       d="m 88.190401,295.02148 c 0,0 -0.485249,0.37458 -0.689565,0.87685 m 4.460893,-1.4898 c 0,0 -0.34904,0.37458 -0.544842,0.95347 m 0.106841,6.69355 -0.782563,0.6742 0,0 m 0,0.0121 0,0 z m -3.069701,5.2536 c 1.133813,0.31248 1.595589,-2.36101 2.004777,-3.82934 0.05446,-0.65835 0.487375,-0.93738 1.059891,-1.43858 l 1.292049,1.6991 c 0.382022,0.72097 0.414673,1.56243 0.211306,2.34187 -0.05771,0.5141 -0.383137,1.01576 -0.246508,1.53567 0.569079,0.24401 2.407673,-1.00435 2.730509,-1.39161 1.447593,-1.97187 -0.02258,-3.09304 0.216525,-4.90666 0.197976,-1.01583 -0.380121,-2.04333 -0.229477,-3.06178 -0.03467,-0.575 0.575335,-0.84711 0.722715,-1.37224 0.332684,-0.80211 0.426173,-1.72257 0.211577,-2.56604 -0.221084,-0.67263 -0.884472,-1.14597 -1.582852,-1.18974 -0.482679,-0.16455 -1.639657,0.096 -1.979523,0.47643 l -0.120586,0.12248 c -0.322794,-0.18827 -0.639883,-0.49369 -0.921751,-0.56355 -0.766095,-0.0687 -2.04958,0.29787 -2.840846,1.18035 l -0.344383,-0.27431 c -0.507819,-0.25581 -1.115423,-0.24664 -1.634351,-0.0414 -0.347494,0.18657 -0.639718,0.84539 -0.516879,1.0318 0.08544,0.5595 0.276478,1.11261 0.528115,1.62665 0.329302,0.91287 1.05451,1.69072 1.173334,2.66653 -0.03222,0.6481 -0.100953,1.3473 -0.195997,2.00716 -0.72517,2.15983 -0.044,6.00314 0.462355,5.94721 z M 86.542636,294.6406 c 0.03739,0.0303 0.02458,0.0475 0,0 z"
       sodipodi:nodetypes="cccccccccccccccccccccccccccccccccc" />
  </g>
</svg>
