<?xml version="1.0" encoding="UTF-8" standalone="no"?>
<!-- Created with Inkscape (http://www.inkscape.org/) -->

<svg
   xmlns:dc="http://purl.org/dc/elements/1.1/"
   xmlns:cc="http://creativecommons.org/ns#"
   xmlns:rdf="http://www.w3.org/1999/02/22-rdf-syntax-ns#"
   xmlns:svg="http://www.w3.org/2000/svg"
   xmlns="http://www.w3.org/2000/svg"
   xmlns:sodipodi="http://sodipodi.sourceforge.net/DTD/sodipodi-0.dtd"
   xmlns:inkscape="http://www.inkscape.org/namespaces/inkscape"
   version="1.0"
   width="16"
   height="16"
   id="Flag_of_the_Red_Cross"
   sodipodi:version="0.32"
   inkscape:version="0.47pre4 r22446"
   sodipodi:docname="doctor.svg"
   inkscape:output_extension="org.inkscape.output.svg.inkscape">
  <metadata
     id="metadata8">
    <rdf:RDF>
      <cc:Work
         rdf:about="">
        <dc:format>image/svg+xml</dc:format>
        <dc:type
           rdf:resource="http://purl.org/dc/dcmitype/StillImage" />
        <dc:title />
      </cc:Work>
    </rdf:RDF>
  </metadata>
  <sodipodi:namedview
     inkscape:window-height="695"
     inkscape:window-width="1018"
     inkscape:pageshadow="2"
     inkscape:pageopacity="0.0"
     guidetolerance="10.0"
     gridtolerance="10.0"
     objecttolerance="10.0"
     borderopacity="1.0"
     bordercolor="#666666"
     pagecolor="#ffffff"
     id="base"
     showgrid="false"
     inkscape:zoom="11.605334"
     inkscape:cx="25.815372"
     inkscape:cy="11.073245"
     inkscape:window-x="0"
     inkscape:window-y="25"
     inkscape:current-layer="Flag_of_the_Red_Cross"
     inkscape:window-maximized="0"
     inkscape:showpageshadow="true"
     showborder="true" />
  <defs
     id="defs10">
    <inkscape:perspective
       sodipodi:type="inkscape:persp3d"
       inkscape:vp_x="0 : 500 : 1"
       inkscape:vp_y="0 : 1000 : 0"
       inkscape:vp_z="1500 : 500 : 1"
       inkscape:persp3d-origin="750 : 333.33333 : 1"
       id="perspective10" />
  </defs>
  <g
     style="font-size:40px;font-style:normal;font-weight:normal;fill:#000000;fill-opacity:1;stroke:none;font-family:Bitstream Vera Sans"
     id="text4227"
     transform="matrix(0.07077044,0,0,0.07077044,0.80143014,-1.3802838)">
    <path
       style="font-size:300px;font-variant:normal;font-stretch:normal;font-family:OpenSymbol;-inkscape-font-specification:OpenSymbol"
       d="m 74.800013,67.122467 c 3.671772,4.095133 11.883905,-0.425169 4.476899,-2.389427 -1.78153,-0.256328 -3.808746,0.626726 -4.476899,2.389427 z M 112.88595,229.42715 c -0.55338,4.73836 2.01212,11.41852 -3.87273,13.65052 -7.75858,1.61099 -7.58024,-8.36287 -7.40657,-13.70685 -1.35642,-5.95751 -13.170385,-3.41883 -18.124619,-7.63294 -11.842903,-2.69448 -9.701216,-18.39119 0.995067,-20.9667 4.172499,-0.738 15.632702,-7.97816 14.715383,-0.43513 2.026209,6.70712 -14.482503,5.54403 -7.977101,13.63701 11.86101,9.87077 30.51911,5.39874 41.20555,17.3172 4.9272,2.59965 5.83738,19.62877 0.13279,9.36927 -4.82133,-6.08997 -12.45181,-9.05074 -19.66777,-11.23238 z m -11.2793,-59.17968 c -13.353651,-2.2119 -28.335308,-3.79709 -38.580629,-13.52587 -7.591837,-7.57071 -0.702343,-18.64954 7.848351,-21.55878 8.923302,-4.29465 18.700482,-6.37431 28.388531,-8.12824 0,3.32031 0,6.64062 0,9.96093 -8.347777,2.27846 -18.069458,3.59614 -24.168228,10.30259 -2.345822,9.69978 13.816411,9.70083 20.156752,12.34518 18.654923,4.68316 39.394703,4.31503 55.785173,15.52248 10.11734,6.43022 2.31778,18.02863 -6.76403,20.05246 -9.28583,3.82318 -19.19235,5.80573 -29.04287,7.54878 0.20695,-3.98506 -2.01126,-9.89077 4.61795,-8.71681 7.46401,-2.38696 18.83038,-2.76842 21.89572,-11.20507 -5.17793,-7.92075 -16.92611,-7.59176 -25.36299,-10.06793 -5.75662,-2.80378 -2.7635,4.85601 -3.49443,8.05845 0,13.31632 0,26.63263 0,39.94894 -3.75977,-0.92774 -7.51953,-1.85547 -11.2793,-2.78321 0,-15.91797 0,-31.83593 0,-47.7539 z m 11.2793,-64.89258 c 0,18.70117 0,37.40234 0,56.10351 -3.75977,-0.78125 -7.51953,-1.5625 -11.2793,-2.34375 0,-18.21289 0,-36.42578 0,-54.63867 -17.327857,-1.29023 -35.890383,-1.88878 -51.14738,-11.160036 -7.4925,-4.226515 -8.989861,-14.223343 -4.370207,-21.112201 6.8941,-11.167144 21.758065,-12.817538 33.700554,-12.393991 4.636777,0.07092 17.713584,8.167952 12.465159,10.610267 -4.646379,1.244566 -9.292759,2.489132 -13.939138,3.733698 4.638672,1.220703 9.277343,2.441406 13.916015,3.662109 -9.443702,2.669875 -18.868888,-0.967424 -27.832031,-3.36914 -10.360019,0.500245 -6.769685,14.237253 2.474041,13.232627 28.703633,7.026837 59.172007,2.988597 87.394027,12.329007 7.18535,2.26366 16.90893,8.45566 13.77946,17.32942 -4.51807,11.38157 -18.12766,14.18421 -28.90177,16.41937 -7.76235,0.8164 -18.33422,3.60687 -24.50162,1.48435 0.58996,-3.35174 -2.08991,-9.59007 3.67397,-8.36268 11.45636,-1.83076 23.75723,-2.6561 33.78934,-8.97194 8.13187,-8.1646 -8.65145,-9.0192 -13.78099,-9.99754 -8.44225,-1.18689 -16.94128,-1.91677 -25.44013,-2.55441 z m 0,-12.890626 c -3.75977,-0.341797 -7.51953,-0.683594 -11.2793,-1.025391 -0.24414,-14.697266 -0.48828,-29.394531 -0.73242,-44.091797 -10.699923,-5.635419 -7.557386,-24.393148 4.69661,-25.671263 12.43714,-2.004252 19.37192,15.248881 10.90391,23.620629 -4.45249,1.814661 -2.239,6.969524 -2.87903,10.73287 -0.23659,12.144984 -0.47318,24.289968 -0.70977,36.434952 z"
       id="path4285" />
  </g>
</svg>
