<?xml version="1.0" encoding="UTF-8" standalone="no"?>
<!-- Created with Inkscape (http://www.inkscape.org/) -->

<svg
   xmlns:dc="http://purl.org/dc/elements/1.1/"
   xmlns:cc="http://creativecommons.org/ns#"
   xmlns:rdf="http://www.w3.org/1999/02/22-rdf-syntax-ns#"
   xmlns:svg="http://www.w3.org/2000/svg"
   xmlns="http://www.w3.org/2000/svg"
   xmlns:sodipodi="http://sodipodi.sourceforge.net/DTD/sodipodi-0.dtd"
   xmlns:inkscape="http://www.inkscape.org/namespaces/inkscape"
   width="16"
   height="16"
   id="svg2"
   sodipodi:version="0.32"
   inkscape:version="0.47pre4 r22446"
   sodipodi:docname="OSB_fire station2.svg"
   inkscape:output_extension="org.inkscape.output.svg.inkscape"
   version="1.1">
  <defs
     id="defs4">
    <inkscape:perspective
       sodipodi:type="inkscape:persp3d"
       inkscape:vp_x="0 : 526.18109 : 1"
       inkscape:vp_y="0 : 1000 : 0"
       inkscape:vp_z="744.09448 : 526.18109 : 1"
       inkscape:persp3d-origin="372.04724 : 350.78739 : 1"
       id="perspective10" />
    <inkscape:perspective
       id="perspective2390"
       inkscape:persp3d-origin="372.04724 : 350.78739 : 1"
       inkscape:vp_z="744.09448 : 526.18109 : 1"
       inkscape:vp_y="0 : 1000 : 0"
       inkscape:vp_x="0 : 526.18109 : 1"
       sodipodi:type="inkscape:persp3d" />
  </defs>
  <sodipodi:namedview
     id="base"
     pagecolor="#ffffff"
     bordercolor="#666666"
     borderopacity="1.0"
     gridtolerance="10000"
     guidetolerance="10"
     objecttolerance="10"
     inkscape:pageopacity="0.0"
     inkscape:pageshadow="2"
     inkscape:zoom="19.849508"
     inkscape:cx="10.257578"
     inkscape:cy="8.2959669"
     inkscape:document-units="px"
     inkscape:current-layer="layer1"
     showgrid="false"
     inkscape:window-width="1018"
     inkscape:window-height="695"
     inkscape:window-x="0"
     inkscape:window-y="25"
     inkscape:window-maximized="0" />
  <metadata
     id="metadata7">
    <rdf:RDF>
      <cc:Work
         rdf:about="">
        <dc:format>image/svg+xml</dc:format>
        <dc:type
           rdf:resource="http://purl.org/dc/dcmitype/StillImage" />
        <dc:title></dc:title>
        <dc:subject>
          <rdf:Bag>
            <rdf:li>Firefighter hat fire fighter outline hardhat hard-hat</rdf:li>
          </rdf:Bag>
        </dc:subject>
      </cc:Work>
    </rdf:RDF>
  </metadata>
  <g
     inkscape:label="Layer 1"
     inkscape:groupmode="layer"
     id="layer1"
     transform="translate(0,-1036.3622)">
    <path
       style="fill:#ffff00;stroke:none"
       d="m 4.080718,1039.8495 c -0.4007592,0.557 -0.5118333,1.251 -0.7821951,1.8697 -0.2404039,0.684 -0.5689658,1.3445 -0.6920472,2.0641 -0.02768,0.2791 0.1921143,0.5237 0.4518663,0.5915 0.3192964,0.1608 0.6158454,0.3951 0.9741607,0.4588 0.3470292,0.017 0.6101227,-0.26 0.7889566,-0.5251 0.4889677,-0.6228 1.0312571,-1.233 1.2927843,-1.9947 0.1787825,-0.486 0.2766372,-1.037 0.1052988,-1.5385 -0.1437547,-0.2845 -0.4657012,-0.3927 -0.7134711,-0.5648 -0.2691085,-0.1608 -0.5517588,-0.2987 -0.8342481,-0.4332 -0.1935039,-0.071 -0.4126463,-0.014 -0.5911052,0.072 z"
       id="path5065" />
    <path
       style="fill:#ff0000;stroke:none"
       d="m 6.2470118,1039.3503 c -0.5650835,0.03 -1.1481987,0.7102 -0.7513298,1.236 0.264099,0.3706 0.4449206,0.8157 0.558996,1.2589 0.1044043,0.4879 -0.099622,0.9666 -0.2053424,1.4365 -0.1781078,0.6625 -0.7383875,1.1608 -1.3590892,1.4074 -0.4737026,0.2166 -0.9271795,-0.045 -1.352043,-0.229 -0.4871246,-0.1744 -1.0021247,-0.2599 -1.5172861,-0.2922 -0.6082774,0.2896 -1.05320794,1.7113 -0.98295121,2.4013 0.25106204,0.651 1.01620371,0.9045 1.65638281,0.9399 0.9914826,-0.031 1.9532503,-0.3096 2.9242597,-0.4883 1.101475,-0.2393 2.2402903,-0.367 3.3617512,-0.199 0.7023877,0.033 1.379166,0.2291 2.0407102,0.4509 0.686575,0.1746 1.394426,0.4149 2.109849,0.3299 0.640882,-0.2214 0.134348,-0.8337 -0.227481,-1.0219 -0.408764,-0.5866 -0.502542,-2.0825 -0.730644,-2.7427 -0.293782,-1.1891 -0.518108,-2.5246 -1.492536,-3.3707 -0.8912679,-0.8581 -2.0908536,-1.4445 -3.3439037,-1.4387 -0.2600742,0.036 -0.43154,0.2784 -0.6893425,0.3217 z"
       id="path5032"
       sodipodi:nodetypes="cssccccccccccccccc" />
    <path
       style="fill:#000000;stroke:#ff0000;stroke-width:0.00104924;stroke-miterlimit:4;stroke-dasharray:none"
       d="m 15.087676,1048.2544 c -0.415276,-0.1155 -0.993077,0.4728 -1.38929,0.2383 -0.396209,-0.2344 -0.690233,-0.2072 -1.246243,-0.4486 -0.556009,-0.2416 -1.53128,-0.4254 -2.161508,-0.6173 -0.6302279,-0.192 -1.1617238,-0.1024 -1.7446158,-0.1932 -0.5828903,-0.091 -1.2278843,-0.1013 -1.7606354,-0.03 -0.5327512,0.072 -0.7459077,0.063 -1.1964944,0.1381 -0.4505865,0.077 -1.2213767,0.2248 -1.9880493,0.3581 -0.7666732,0.1333 -2.0957383,0.081 -2.74749863,-0.2628 -0.65176032,-0.3433 -0.85322392685,-1.7222 -0.58557708,-2.2722 0.26764636,-0.5501 0.66041179,-0.877 1.14232001,-1.0618 0.4819083,-0.1847 0.8032669,-0.808 0.9458166,-1.3319 0.1425494,-0.5237 0.3309015,-0.8425 0.5035323,-1.3764 0.1726301,-0.5333 0.3304435,-1.0829 0.5579988,-1.6454 0.2275553,-0.5623 0.7622876,-0.7513 1.4203985,-0.63 0.6581108,0.1213 1.5749562,-0.1372 2.236753,-0.1611 0.6617965,-0.024 0.9367261,0.051 1.6554732,0.3448 0.7187463,0.293 1.8167602,1.1404 2.2996732,1.8177 0.482912,0.6772 0.664554,1.0882 0.882434,1.7071 0.21788,0.6188 0.280022,1.2391 0.470705,1.93 0.190682,0.6906 0.816526,1.6343 1.463531,1.987 0.647007,0.3526 1.690852,1.1085 1.933409,1.7294 0.242555,0.6211 -0.276856,-0.1046 -0.692133,-0.2202 l 0,4e-4 z m -12.0611332,-1.2561 c 0,-0.5572 0.9789198,-0.1721 1.4643767,-0.2662 0.4854569,-0.093 0.7580125,-0.082 1.752579,-0.1623 0.9945661,-0.08 3.1689369,0.1067 4.1631155,0.2375 0.994178,0.1318 1.878065,0.5204 1.876612,0.169 -0.0014,-0.3513 -0.580721,-2.0932 -0.698552,-2.7457 -0.117829,-0.6525 -0.179223,-1.1278 -0.473451,-1.8205 -0.294226,-0.6926 -1.047907,-1.5916 -1.6051435,-1.9951 -0.557237,-0.4032 -0.8548531,-0.5647 -1.388963,-0.7119 -0.5341104,-0.1473 -1.337392,-0.094 -1.837008,0.085 -0.4996164,0.1782 -0.4706064,0.1721 -0.1358854,0.5334 0.3347209,0.3611 0.191971,1.2538 0.2198764,1.9319 0.027903,0.6779 -0.3430476,1.0581 -0.6779128,1.5342 -0.3348653,0.476 -0.4248308,1.0859 -0.9228915,1.4004 -0.4980611,0.3145 -1.2391138,0.032 -1.5554102,-0.1554 -0.3162962,-0.1869 -0.7020879,-0.4176 -1.0576995,-0.2892 -0.3556112,0.1284 -1.51848938,1.3977 -0.9948693,1.9001 0.5236208,0.5024 1.3159947,0.4016 1.8712266,0.3549 l 0,-10e-5 z m 1.3396744,-2.7268 c 0.2516895,-0.2518 0.618663,-0.9394 0.9553863,-1.3397 0.336724,-0.4006 0.4402523,-1.1299 0.2832331,-1.6893 -0.1570198,-0.5596 -0.6177761,-0.6353 -1.0316934,-1.0822 -0.4139183,-0.447 -0.613967,0.3896 -0.7757578,0.7583 -0.1617906,0.3688 -0.4133246,1.1815 -0.4714918,1.5674 -0.058166,0.386 -0.2954548,0.9506 -0.2968353,1.2061 -0.00137,0.2556 0.5363491,0.4954 0.7344452,0.54 0.1980967,0.044 0.3510247,0.2913 0.6027137,0.039 l 0,4e-4 z"
       id="path2396"
       sodipodi:nodetypes="czzzzzzzzzzzzzzzzzzzzzzcczzzzzzzzzzzzzzzzczczzzzzzscc" />
  </g>
</svg>
