<?xml version="1.0" encoding="UTF-8" standalone="no"?>
<!-- Generator: Adobe Illustrator 13.0.2, SVG Export Plug-In . SVG Version: 6.00 Build 14948)  -->

<svg
   xmlns:dc="http://purl.org/dc/elements/1.1/"
   xmlns:cc="http://creativecommons.org/ns#"
   xmlns:rdf="http://www.w3.org/1999/02/22-rdf-syntax-ns#"
   xmlns:svg="http://www.w3.org/2000/svg"
   xmlns="http://www.w3.org/2000/svg"
   xmlns:sodipodi="http://sodipodi.sourceforge.net/DTD/sodipodi-0.dtd"
   xmlns:inkscape="http://www.inkscape.org/namespaces/inkscape"
   version="1.1"
   id="Layer_1"
   x="0px"
   y="0px"
   width="16"
   height="16"
   viewBox="-0.258 -0.548 16 16"
   xml:space="preserve"
   inkscape:version="0.47pre4 r22446"
   sodipodi:docname="OSB_library.svg"><metadata
   id="metadata4547"><rdf:RDF><cc:Work
       rdf:about=""><dc:format>image/svg+xml</dc:format><dc:type
         rdf:resource="http://purl.org/dc/dcmitype/StillImage" /><dc:title /></cc:Work></rdf:RDF></metadata><defs
   id="defs4545"><inkscape:perspective
   sodipodi:type="inkscape:persp3d"
   inkscape:vp_x="0 : 61.769501 : 1"
   inkscape:vp_y="0 : 1000 : 0"
   inkscape:vp_z="123.547 : 61.769501 : 1"
   inkscape:persp3d-origin="61.773499 : 41.179667 : 1"
   id="perspective4549" />
	
	
	
	
	
</defs><sodipodi:namedview
   pagecolor="#ffffff"
   bordercolor="#666666"
   borderopacity="1"
   objecttolerance="10"
   gridtolerance="10"
   guidetolerance="10"
   inkscape:pageopacity="0"
   inkscape:pageshadow="2"
   inkscape:window-width="1024"
   inkscape:window-height="697"
   id="namedview4543"
   showgrid="false"
   inkscape:zoom="15.282623"
   inkscape:cx="13.194858"
   inkscape:cy="8.0783611"
   inkscape:window-x="0"
   inkscape:window-y="25"
   inkscape:window-maximized="1"
   inkscape:current-layer="g4556" />
<g
   id="g4556"
   transform="matrix(0.16935186,0,0,0.16935186,-2.729513,-2.7748922)"><path
     d="m 62.18,41.035 c 7.5,0 13.555,-6.094 13.555,-13.586 0,-7.5 -6.055,-13.562 -13.555,-13.562 -7.5,0 -13.562,6.062 -13.562,13.562 -0.001,7.492 6.062,13.586 13.562,13.586 z"
     id="path4537" /><rect
     style="fill:#ffffff;fill-opacity:1;stroke:none"
     id="rect4035"
     width="7.2631512"
     height="6.6088133"
     x="4.3840642"
     y="6.3812323"
     transform="matrix(5.9048658,0,0,5.9048658,14.593952,13.1495)" /><path
     d="m 75.367,44.34 c 6.203,0.219 8.812,5.188 8.812,5.188 l 20.023,27.477 c 0.828,1.219 1.312,2.711 1.312,4.32 0,4.273 -3.461,7.742 -7.734,7.742 -1.023,0 -1.953,-0.227 -2.836,-0.562 L 82.858,85.13 V 97.192 H 40.898 V 85.129 L 28.812,88.504 C 27.96,88.84 27,89.066 25.968,89.066 c -4.273,0 -7.727,-3.469 -7.727,-7.742 0,-1.609 0.477,-3.102 1.344,-4.32 L 39.593,49.527 c 0,0 2.625,-4.969 8.805,-5.188 h 26.969 z m -13.484,44.43 0,0 15.656,-5.203 -0.344,-0.07 C 66.383,80.325 70.586,66.044 81.375,69.231 l 1.484,0.516 V 53.629 L 61.883,60.48 40.899,53.628 v 16.117 l 1.477,-0.516 c 10.805,-3.188 15.016,11.094 4.203,14.266 l -0.352,0.07 15.656,5.205 0,0 z"
     id="path4539" /><path
     d="m 104.984,106.691 c 1.07,0 1.93,-0.859 1.93,-1.93 l 0,0 c 0,-1.078 -0.859,-1.93 -1.93,-1.93 h -84.68 c -1.047,0 -1.93,0.852 -1.93,1.93 l 0,0 c 0,1.07 0.883,1.93 1.93,1.93 h 84.68 z"
     id="path4541" /></g>
</svg>