<?xml version="1.0" encoding="UTF-8" standalone="no"?>
<svg
   xmlns:dc="http://purl.org/dc/elements/1.1/"
   xmlns:cc="http://creativecommons.org/ns#"
   xmlns:rdf="http://www.w3.org/1999/02/22-rdf-syntax-ns#"
   xmlns:svg="http://www.w3.org/2000/svg"
   xmlns="http://www.w3.org/2000/svg"
   xmlns:sodipodi="http://sodipodi.sourceforge.net/DTD/sodipodi-0.dtd"
   xmlns:inkscape="http://www.inkscape.org/namespaces/inkscape"
   version="1.1"
   height="16"
   width="16"
   id="svg3723"
   inkscape:version="0.47pre4 r22446"
   sodipodi:docname="cinema.svg">
  <metadata
     id="metadata3735">
    <rdf:RDF>
      <cc:Work
         rdf:about="">
        <dc:format>image/svg+xml</dc:format>
        <dc:type
           rdf:resource="http://purl.org/dc/dcmitype/StillImage" />
        <dc:title />
      </cc:Work>
    </rdf:RDF>
  </metadata>
  <defs
     id="defs3733">
    <inkscape:perspective
       sodipodi:type="inkscape:persp3d"
       inkscape:vp_x="0 : 300 : 1"
       inkscape:vp_y="0 : 1000 : 0"
       inkscape:vp_z="1000 : 300 : 1"
       inkscape:persp3d-origin="500 : 200 : 1"
       id="perspective3737" />
    <inkscape:perspective
       id="perspective4943"
       inkscape:persp3d-origin="0.5 : 0.33333333 : 1"
       inkscape:vp_z="1 : 0.5 : 1"
       inkscape:vp_y="0 : 1000 : 0"
       inkscape:vp_x="0 : 0.5 : 1"
       sodipodi:type="inkscape:persp3d" />
  </defs>
  <sodipodi:namedview
     pagecolor="#ffffff"
     bordercolor="#666666"
     borderopacity="1"
     objecttolerance="10"
     gridtolerance="10"
     guidetolerance="10"
     inkscape:pageopacity="0"
     inkscape:pageshadow="2"
     inkscape:window-width="1024"
     inkscape:window-height="697"
     id="namedview3731"
     showgrid="false"
     inkscape:zoom="8.9001172"
     inkscape:cx="16.174157"
     inkscape:cy="11.46312"
     inkscape:window-x="0"
     inkscape:window-y="25"
     inkscape:window-maximized="1"
     inkscape:current-layer="svg3723" />
  <g
     transform="matrix(0.1048211,0,0,0.1048211,-3.8068798,-4.1693073)"
     id="g4929">
    <path
       transform="matrix(-5.1694915,0,0,5.1694915,220.82562,0)"
       d="m 18.271187,14.262712 c 0,3.037566 -2.462434,5.5 -5.5,5.5 -3.0375663,0 -5.5000002,-2.462434 -5.5000002,-5.5 0,-3.037567 2.4624339,-5.5000005 5.5000002,-5.5000005 3.037566,0 5.5,2.4624335 5.5,5.5000005 z"
       sodipodi:ry="5.5"
       sodipodi:rx="5.5"
       sodipodi:cy="14.262712"
       sodipodi:cx="12.771187"
       id="path3840"
       style="fill:#000000;fill-opacity:1;stroke:#000000"
       sodipodi:type="arc" />
    <path
       transform="matrix(-5.1694915,0,0,5.1694915,151.06334,0.777508)"
       d="m 18.271187,14.262712 c 0,3.037566 -2.462434,5.5 -5.5,5.5 -3.0375663,0 -5.5000002,-2.462434 -5.5000002,-5.5 0,-3.037567 2.4624339,-5.5000005 5.5000002,-5.5000005 3.037566,0 5.5,2.4624335 5.5,5.5000005 z"
       sodipodi:ry="5.5"
       sodipodi:rx="5.5"
       sodipodi:cy="14.262712"
       sodipodi:cx="12.771187"
       id="path3840-6"
       style="fill:#000000;fill-opacity:1;stroke:#000000"
       sodipodi:type="arc" />
    <path
       sodipodi:nodetypes="cccccccccccccccc"
       id="path4376"
       d="m 169.44958,108.50847 0,42.50848 -31.32203,0 0,8.57627 -37.66102,0 0,-8.57627 -27.593215,0 0,-21.25424 -12.30509,0 -20.50847,20.50848 0,-55.559326 19.20339,19.203386 13.23728,0 0,-6.15254 c 0,0 32.908865,10.46579 47.355935,-19.389832 15.60437,28.685602 49.59322,20.135592 49.59322,20.135592 z"
       style="fill:#000000;stroke:#000000;stroke-width:1px;stroke-linecap:butt;stroke-linejoin:miter;stroke-opacity:1" />
    <path
       sodipodi:nodetypes="ccc"
       id="path4927"
       d="m 137.31703,185.79826 -20.0387,-34.27671 -21.093345,34.80404"
       style="fill:none;stroke:#000000;stroke-width:10;stroke-linecap:butt;stroke-linejoin:miter;stroke-miterlimit:4;stroke-opacity:1;stroke-dasharray:none" />
  </g>
</svg>
