<?xml version="1.0" encoding="UTF-8" standalone="no"?>
<svg
   xmlns:dc="http://purl.org/dc/elements/1.1/"
   xmlns:cc="http://creativecommons.org/ns#"
   xmlns:rdf="http://www.w3.org/1999/02/22-rdf-syntax-ns#"
   xmlns:svg="http://www.w3.org/2000/svg"
   xmlns="http://www.w3.org/2000/svg"
   xmlns:sodipodi="http://sodipodi.sourceforge.net/DTD/sodipodi-0.dtd"
   xmlns:inkscape="http://www.inkscape.org/namespaces/inkscape"
   height="16"
   width="16"
   id="svg4302"
   version="1.1"
   inkscape:version="0.47pre4 r22446"
   sodipodi:docname="OSB_zoo.svg">
  <defs
     id="defs4310">
    <inkscape:perspective
       sodipodi:type="inkscape:persp3d"
       inkscape:vp_x="0 : 171.5 : 1"
       inkscape:vp_y="0 : 1000 : 0"
       inkscape:vp_z="477 : 171.5 : 1"
       inkscape:persp3d-origin="238.5 : 114.33333 : 1"
       id="perspective4312" />
  </defs>
  <sodipodi:namedview
     pagecolor="#ffffff"
     bordercolor="#666666"
     borderopacity="1"
     objecttolerance="10"
     gridtolerance="10"
     guidetolerance="10"
     inkscape:pageopacity="0"
     inkscape:pageshadow="2"
     inkscape:window-width="1024"
     inkscape:window-height="697"
     id="namedview4308"
     showgrid="false"
     inkscape:zoom="33.599427"
     inkscape:cx="8.1377331"
     inkscape:cy="10.526807"
     inkscape:window-x="0"
     inkscape:window-y="25"
     inkscape:window-maximized="1"
     inkscape:current-layer="svg4302" />
  <metadata
     id="metadata4304">
    <rdf:RDF>
      <cc:Work
         rdf:about="">
        <dc:title></dc:title>
        <dc:description />
        <dc:subject>
          <rdf:Bag>
            <rdf:li>mammal</rdf:li>
            <rdf:li />
            <rdf:li>animal</rdf:li>
          </rdf:Bag>
        </dc:subject>
        <dc:publisher>
          <cc:Agent
             rdf:about="http://www.openclipart.org">
            <dc:title>Nicu Buculei</dc:title>
          </cc:Agent>
        </dc:publisher>
        <dc:creator>
          <cc:Agent>
            <dc:title>Nicu Buculei</dc:title>
          </cc:Agent>
        </dc:creator>
        <dc:rights>
          <cc:Agent>
            <dc:title>Nicu Buculei</dc:title>
          </cc:Agent>
        </dc:rights>
        <dc:date />
        <dc:format>image/svg+xml</dc:format>
        <dc:type
           rdf:resource="http://purl.org/dc/dcmitype/StillImage" />
        <cc:license
           rdf:resource="http://web.resource.org/cc/PublicDomain" />
        <dc:language>en</dc:language>
      </cc:Work>
      <cc:License
         rdf:about="http://web.resource.org/cc/PublicDomain">
        <cc:permits
           rdf:resource="http://web.resource.org/cc/Reproduction" />
        <cc:permits
           rdf:resource="http://web.resource.org/cc/Distribution" />
        <cc:permits
           rdf:resource="http://web.resource.org/cc/DerivativeWorks" />
      </cc:License>
    </rdf:RDF>
  </metadata>
  <path
     style="fill:#000000;stroke:none"
     d="M 1.8566162,11.191372 C 2.6384293,11.374573 2.2878795,10.526015 1.7456029,10.490014 1.2421609,10.318245 1.1519858,10.779644 1.244202,11.081134 0.69563893,11.004795 0.85084252,9.9663467 1.1953159,9.5531927 1.4683008,8.8406931 1.6687387,8.1026051 1.8577666,7.3666541 2.4991727,8.0479597 2.7877592,8.091302 3.5658337,7.3161324 3.9788181,6.6861684 4.3528438,7.0589631 4.5385053,7.4315591 4.8250098,8.1176641 4.3620883,8.7494821 4.2175367,9.3980587 4.2574337,10.216963 3.7227732,10.905491 3.6771104,11.70074 c 0.1249993,0.686911 -0.8675873,0.831208 -0.8187793,1.475375 0.3179443,0.500562 1.0785191,0.344992 1.5966111,0.314856 0.7285538,0.116032 0.9471491,-0.521862 0.7041481,-1.122784 0.1701306,-0.580595 0.6599011,-1.034868 0.8189168,-1.639662 0.1003613,-0.298065 0.2552215,-0.8260793 0.2472318,-0.204702 0.030555,0.664574 0.3781422,1.236086 0.617745,1.832795 0.058249,0.567442 -0.9084831,1.102631 -0.228076,1.616568 C 7.2719747,14.249636 7.8799707,13.61253 8.5486057,13.6364 9.1754792,13.11294 8.2948885,12.312741 8.5048877,11.623455 8.6567007,10.93761 8.0232602,10.352659 8.2148143,9.6915767 8.2485473,9.1508051 8.539459,9.2773481 8.8805176,9.4821407 c 0.5149743,0.238489 1.0318999,0.473222 1.5150444,0.7729423 -0.156905,0.710669 0.534798,1.558786 -0.309479,1.980547 -0.5908544,0.788163 1.000286,0.813557 1.498712,0.824272 0.866376,0.133266 1.002943,-0.751535 0.915235,-1.39087 0.08354,-0.353451 -0.126769,-1.130576 0.004,-1.205004 0.510544,0.439779 0.611536,1.154465 0.931455,1.720124 0.158789,0.554771 -1.272582,1.133598 -0.331197,1.534294 0.693534,0.137718 1.842925,0.54595 2.224764,-0.272878 0.195305,-0.868561 0.08776,-1.796193 -0.266453,-2.610088 -0.03986,-0.800013 0.337603,-1.5918769 0.04485,-2.4155219 0.02329,-0.352457 0.07857,-1.195734 0.199735,-0.411442 0.196295,1.007892 -0.104514,2.0519499 0.178062,3.0504309 -0.09625,0.372862 0.400063,1.375904 0.500217,0.544391 C 15.823212,11.005994 15.5403,10.376649 15.787575,9.7580777 15.954333,8.4073471 16.171185,6.8801881 15.384809,5.6738296 14.676555,4.8026011 13.614228,4.3359933 12.708838,3.7037235 12.050592,3.1955236 11.220955,3.3426961 10.455424,3.3530807 9.2846621,3.2729033 8.1297785,2.997368 6.9512313,3.0561108 5.7764152,2.9341124 6.6778322,-1.2275784 2.7803721,0.4165604 1.0214411,1.1585633 4.0791349,2.1260405 1.3672189,2.7408488 0.79154361,3.2511879 0.95760704,4.3262297 0.89440541,5.1027286 0.73736315,6.1098401 0.00255603,6.9756461 0.11508808,8.0346531 c 0.052569,0.81066 0.17920166,1.6314946 -0.0481053,2.4290929 -0.29781356,0.861737 0.73573371,1.692557 1.51087892,1.229946 0.1688364,-0.110008 0.2610526,-0.306309 0.2787241,-0.50232 l 3.04e-5,0 z"
     id="path4306"
     sodipodi:nodetypes="ccccccccccccccccccccccccccccccccccccccsccccscc" />
</svg>
