<?xml version="1.0" encoding="UTF-8" standalone="no"?>
<!-- Created with Inkscape (http://www.inkscape.org/) -->

<svg
   xmlns:dc="http://purl.org/dc/elements/1.1/"
   xmlns:cc="http://creativecommons.org/ns#"
   xmlns:rdf="http://www.w3.org/1999/02/22-rdf-syntax-ns#"
   xmlns:svg="http://www.w3.org/2000/svg"
   xmlns="http://www.w3.org/2000/svg"
   xmlns:sodipodi="http://sodipodi.sourceforge.net/DTD/sodipodi-0.dtd"
   xmlns:inkscape="http://www.inkscape.org/namespaces/inkscape"
   version="1.1"
   width="16"
   height="16"
   id="svg4959"
   inkscape:version="0.47pre4 r22446"
   sodipodi:docname="Headphone_icon.svg">
  <metadata
     id="metadata4642">
    <rdf:RDF>
      <cc:Work
         rdf:about="">
        <dc:format>image/svg+xml</dc:format>
        <dc:type
           rdf:resource="http://purl.org/dc/dcmitype/StillImage" />
        <dc:title></dc:title>
      </cc:Work>
    </rdf:RDF>
  </metadata>
  <sodipodi:namedview
     pagecolor="#ffffff"
     bordercolor="#666666"
     borderopacity="1"
     objecttolerance="10"
     gridtolerance="10"
     guidetolerance="10"
     inkscape:pageopacity="0"
     inkscape:pageshadow="2"
     inkscape:window-width="1024"
     inkscape:window-height="697"
     id="namedview4640"
     showgrid="false"
     inkscape:zoom="15.52346"
     inkscape:cx="9.8162668"
     inkscape:cy="5.7280684"
     inkscape:window-x="0"
     inkscape:window-y="25"
     inkscape:window-maximized="1"
     inkscape:current-layer="svg4959" />
  <defs
     id="defs4961">
    <inkscape:perspective
       sodipodi:type="inkscape:persp3d"
       inkscape:vp_x="0 : 21.5 : 1"
       inkscape:vp_y="0 : 1000 : 0"
       inkscape:vp_z="43 : 21.5 : 1"
       inkscape:persp3d-origin="21.5 : 14.333333 : 1"
       id="perspective4644" />
  </defs>
  <g
     transform="matrix(0.3730006,0,0,0.3730006,-228.17905,-287.47551)"
     id="layer1">
    <path
       d="M 19.28125,0.875 C 7.92809,0.875 3.0625,10.86946 3.0625,16.78125 c 1.45407,0.4862 2.59626,1.03498 3.53125,1.625 -3.1425713,1.283763 -1.5426703,7.584546 0.59375,11.125 -0.15791,0.81067 -0.25,1.655 -0.25,2.53125 0,5.56417 3.39119,10.0625 7.59375,10.0625 1.05065,0 2.05838,-0.27144 2.96875,-0.78125 0.0125,-0.007 0.01885,-0.02425 0.03125,-0.03125 1.23487,-1.93918 2,-4.55609 2,-7.4375 0,-3.06389 -0.84371,-5.81116 -2.21875,-7.78125 C 16.39282,24.77606 15.25479,23.83043 14,23.34375 12.22409,20.91774 10.52323,18.4525 9.65625,15.875 10.10684,11.40859 16.44096,3.60432 22.34375,3.65625 28.22052,3.70795 30.6387,10.98369 32.875,16 c -0.43426,0.28133 -0.83325,0.62996 -1.15625,1.03125 -0.12285,0.15263 -0.23687,0.3322 -0.34375,0.5 -0.36479,-0.10898 -0.74097,-0.1875 -1.125,-0.1875 -3.41358,0 -6.1875,4.49832 -6.1875,10.0625 0,5.56417 2.77392,10.0625 6.1875,10.0625 2.67118,0 4.94734,-2.76079 5.8125,-6.625 1.00256,-0.71238 1.56281,-2.69105 1.4375,-5.03125 0.4191,-0.27728 0.81127,-0.6102 1.125,-1 0.82136,-1.02047 1.28125,-2.37442 1.28125,-3.875 0,-1.50058 -0.45989,-2.88578 -1.28125,-3.90625 -0.82136,-1.02047 -2.02967,-1.71875 -3.4375,-1.71875 -0.0516,0 -0.10517,-0.002 -0.15625,0 0.670835,-2.999431 0.492927,-5.6558405 0,-8.34375 C 30.25922,2.35754 26.59817,0.875 19.28125,0.875 z m 18.34375,23.5 c -0.0763,0.0948 -0.16947,0.1653 -0.25,0.25 -0.46107,-3.07497 -1.95429,-5.36771 -3.4375,-5.28125 -0.46646,-0.56527 -0.97676,-1.03976 -1.53125,-1.375 5.174211,-4.076301 7.986303,3.75558 5.21875,6.40625 z m -30.28125,-5 c 0.25031,0.008 0.546,0.10212 0.90625,0.3125 1.19625,1.14825 1.88611,2.39153 2.5,3.65625 -1.36896,1.04514 -2.12348,2.3654 -2.78125,4.28125 -1.53189,-1.0338 -2.64588,-8.31642 -0.625,-8.25 z M 29,21.46875 c 0.43466,-0.03472 0.84789,0.18403 1.1875,0.53125 0.33962,0.34721 0.62949,0.8631 0.875,1.4375 0.49102,1.14881 0.81745,2.68062 0.90625,4.40625 0.08885,1.72564 -0.09957,3.28246 -0.46875,4.5 -0.1846,0.60876 -0.38628,1.16408 -0.6875,1.5625 -0.30123,0.39842 -0.69034,0.68405 -1.125,0.71875 -0.43466,0.03473 -0.84789,-0.18403 -1.1875,-0.53125 -0.33962,-0.34722 -0.62949,-0.8631 -0.875,-1.4375 -0.49103,-1.14881 -0.8486,-2.68062 -0.9375,-4.40625 -0.08885,-1.72564 0.09956,-3.28246 0.46875,-4.5 0.18459,-0.60877 0.41753,-1.16409 0.71875,-1.5625 0.30123,-0.39842 0.69034,-0.68405 1.125,-0.71875 z m -14.46875,0.5 c -0.43703,0 -0.86435,0.0626 -1.28125,0.15625 1.92428,0.37693 3.65365,1.61156 4.90625,3.40625 1.50829,2.161 2.40625,5.1038 2.40625,8.34375 0,2.07817 -0.36429,4.04352 -1.03125,5.75 1.59557,-1.84678 2.625,-4.53612 2.625,-7.5625 0,-5.56418 -3.42243,-10.09375 -7.625,-10.09375 z m 14.53125,0.625 c -0.16788,0.01341 -0.34166,0.12424 -0.53125,0.375 C 28.34166,23.21951 28.15434,23.61602 28,24.125 c -0.30871,1.01797 -0.48805,2.47315 -0.40625,4.0625 0.08184,1.58934 0.40196,3.0395 0.8125,4 0.20527,0.48025 0.44249,0.81271 0.65625,1.03125 0.21375,0.21853 0.39463,0.29465 0.5625,0.28125 0.16788,-0.01341 0.34166,-0.12424 0.53125,-0.375 0.18959,-0.25076 0.37691,-0.61601 0.53125,-1.125 0.30871,-1.01796 0.4568,-2.50441 0.375,-4.09375 C 30.98067,26.3169 30.66054,24.92926 30.25,23.96875 30.04473,23.4885 29.83875,23.09354 29.625,22.875 29.41125,22.65648 29.23037,22.58035 29.0625,22.59375 z"
       transform="translate(612.78571,770.86218)"
       id="path4983"
       style="fill:#000000;fill-opacity:1;stroke:none" />
  </g>
</svg>
