<?xml version="1.0" encoding="UTF-8" standalone="no"?>
<!-- Created with Inkscape (http://www.inkscape.org/) -->

<svg
   xmlns:dc="http://purl.org/dc/elements/1.1/"
   xmlns:cc="http://creativecommons.org/ns#"
   xmlns:rdf="http://www.w3.org/1999/02/22-rdf-syntax-ns#"
   xmlns:svg="http://www.w3.org/2000/svg"
   xmlns="http://www.w3.org/2000/svg"
   xmlns:sodipodi="http://sodipodi.sourceforge.net/DTD/sodipodi-0.dtd"
   xmlns:inkscape="http://www.inkscape.org/namespaces/inkscape"
   width="16"
   height="16"
   id="svg12385"
   sodipodi:version="0.32"
   inkscape:version="0.47pre4 r22446"
   sodipodi:docname="OSB_sport archery.svg"
   inkscape:output_extension="org.inkscape.output.svg.inkscape"
   version="1.1">
  <defs
     id="defs12387">
    <inkscape:perspective
       sodipodi:type="inkscape:persp3d"
       inkscape:vp_x="0 : 526.18109 : 1"
       inkscape:vp_y="0 : 1000 : 0"
       inkscape:vp_z="744.09448 : 526.18109 : 1"
       inkscape:persp3d-origin="372.04724 : 350.78739 : 1"
       id="perspective12393" />
  </defs>
  <sodipodi:namedview
     id="base"
     pagecolor="#ffffff"
     bordercolor="#666666"
     borderopacity="1.0"
     gridtolerance="10000"
     guidetolerance="10"
     objecttolerance="10"
     inkscape:pageopacity="0.0"
     inkscape:pageshadow="2"
     inkscape:zoom="31.678384"
     inkscape:cx="6.0324153"
     inkscape:cy="10.968273"
     inkscape:document-units="px"
     inkscape:current-layer="g2912"
     showgrid="false"
     inkscape:window-width="1018"
     inkscape:window-height="695"
     inkscape:window-x="0"
     inkscape:window-y="25"
     inkscape:window-maximized="0" />
  <metadata
     id="metadata12390">
    <rdf:RDF>
      <cc:Work
         rdf:about="">
        <dc:format>image/svg+xml</dc:format>
        <dc:type
           rdf:resource="http://purl.org/dc/dcmitype/StillImage" />
        <dc:title></dc:title>
        <dc:creator>
          <cc:Agent>
            <dc:title>Mohamed Ibrahim</dc:title>
          </cc:Agent>
        </dc:creator>
        <dc:rights>
          <cc:Agent>
            <dc:title>Public Domain</dc:title>
          </cc:Agent>
        </dc:rights>
        <dc:publisher>
          <cc:Agent>
            <dc:title>clker.com</dc:title>
          </cc:Agent>
        </dc:publisher>
        <dc:subject>
          <rdf:Bag>
            <rdf:li>other map symbols</rdf:li>
          </rdf:Bag>
        </dc:subject>
        <cc:license
           rdf:resource="http://creativecommons.org/licenses/publicdomain/" />
      </cc:Work>
      <cc:License
         rdf:about="http://creativecommons.org/licenses/publicdomain/">
        <cc:permits
           rdf:resource="http://creativecommons.org/ns#Reproduction" />
        <cc:permits
           rdf:resource="http://creativecommons.org/ns#Distribution" />
        <cc:permits
           rdf:resource="http://creativecommons.org/ns#DerivativeWorks" />
      </cc:License>
    </rdf:RDF>
  </metadata>
  <g
     inkscape:label="Layer 1"
     inkscape:groupmode="layer"
     id="layer1"
     transform="translate(0,-1036.3622)">
    <g
       id="g2912"
       transform="matrix(0.03311848,0,0,0.03311848,-3.3118021,1032.4516)">
      <path
         id="path5392"
         style="fill:#231f20;fill-opacity:1;fill-rule:nonzero;stroke:none"
         d="m 307.76039,230.28514 -93.5149,0 c -22.51599,0 -22.51599,29.36131 0,29.36131 l 93.5149,0 c 22.45942,0.0566 22.45942,-29.36131 0,-29.36131" />
      <path
         id="path5394"
         style="fill:#231f20;fill-opacity:1;fill-rule:nonzero;stroke:none"
         d="m 307.76039,230.28514 -93.5149,0 c -22.51599,0 -22.51599,29.36131 0,29.36131 l 93.5149,0 c 22.45942,0.0566 22.45942,-29.36131 0,-29.36131" />
      <path
         transform="matrix(30.194622,0,0,30.194622,99.998614,118.07909)"
         style="fill:#ffffff;fill-opacity:1;fill-rule:evenodd;stroke:none"
         d="M 7.8286818,3.815035 11.269514,0.59517366 12.879445,4.3201111 11.237947,8.0450487 7.8602491,5.361831 5.1178427,5.2908047 4.7745487,3.767684 5.3151381,2.2445634 7.3709564,2.520777 7.8286818,3.815035 z"
         id="rect2940"
         sodipodi:nodetypes="cccccccccc" />
      <path
         id="path5398"
         style="fill:#231f20;fill-opacity:1;fill-rule:nonzero;stroke:none"
         d="m 296.89841,222.76096 c 21.83711,0 39.31812,-17.65073 39.31812,-39.31812 0,-21.72397 -17.48101,-39.3747 -39.31812,-39.3747 -21.6674,0 -39.31812,17.65073 -39.31812,39.3747 0,21.66739 17.65072,39.31812 39.31812,39.31812" />
      <path
         id="path5400"
         style="fill:#231f20;fill-opacity:1;fill-rule:nonzero;stroke:none"
         d="m 306.06321,232.77435 -98.15387,0 c -23.70402,0 -23.70402,30.77562 0,30.77562 l 98.15387,0 c 23.59087,0.0566 23.59087,-30.77562 0,-30.77562" />
      <path
         id="path5402"
         style="fill:#231f20;fill-opacity:1;fill-rule:nonzero;stroke:none"
         d="m 472.8965,232.77435 -126.89287,0 c 23.30801,-23.25144 66.92567,-66.86909 89.21536,-89.15879 21.44111,25.23148 34.56601,56.28997 37.67751,89.15879 m 0,30.77562 c -3.22465,32.64253 -16.2364,63.5313 -37.56436,88.70621 -19.68735,-19.63077 -56.06368,-56.06368 -80.33343,-80.33343 l 0,-8.37278 117.89779,0 z m -162.08117,156.76333 0,-1.35774 c 0,0.22629 0.11314,0.28286 0.11314,0.56572 l -0.11314,0.79202 z M 492.97986,247.99244 c 0,-43.56108 -15.67067,-85.25526 -44.12681,-118.06751 0.11314,-0.11314 -7.12818,-7.86362 -7.12818,-7.86362 l -110.76961,110.71304 -1.92348,1.81033 c 0.33944,0.50916 0.84859,0.79202 1.07488,1.35775 1.69719,3.05493 2.65893,6.4493 3.05494,9.7871 0.11314,1.35775 0,2.82864 -0.16972,4.24296 -0.22629,2.94179 -0.79202,5.827 -2.03662,8.5425 l -0.11315,0.28286 c -0.28286,0.45259 -0.39601,1.07489 -0.73545,1.64062 -0.22629,0.39601 -0.45258,0.6223 -0.73544,0.90516 -4.86527,7.46762 -13.18147,11.82372 -23.30801,11.82372 l -54.02706,0 0,144.26074 c 0,0.11314 0.11314,0.22629 0.11314,0.33944 L 221.65654,570.9102 c -2.31949,11.93686 5.48756,23.5343 17.36786,25.85378 11.93687,2.43263 23.47772,-5.31784 25.91036,-17.31129 l 31.51107,-158.74338 0,-0.16972 14.3695,0 0,0.16972 31.62421,158.74338 c 2.43263,11.99345 13.91692,19.74392 25.96693,17.31129 11.82373,-2.31948 19.57421,-13.91692 17.25472,-25.85378 l -30.77562,-154.50042 0,-129.38208 86.8393,86.78273 c 0,0 7.24132,-7.86362 7.24132,-7.9202 28.343,-32.81224 44.01367,-74.44985 44.01367,-117.89779" />
    </g>
  </g>
</svg>
