<?xml version="1.0" encoding="UTF-8" standalone="no"?>
<!-- Created with Inkscape (http://www.inkscape.org/) -->

<svg
   xmlns:dc="http://purl.org/dc/elements/1.1/"
   xmlns:cc="http://creativecommons.org/ns#"
   xmlns:rdf="http://www.w3.org/1999/02/22-rdf-syntax-ns#"
   xmlns:svg="http://www.w3.org/2000/svg"
   xmlns="http://www.w3.org/2000/svg"
   xmlns:sodipodi="http://sodipodi.sourceforge.net/DTD/sodipodi-0.dtd"
   xmlns:inkscape="http://www.inkscape.org/namespaces/inkscape"
   version="1.0"
   width="16"
   height="16"
   viewBox="0 0 16 15.999999"
   id="svg2"
   xml:space="preserve"
   inkscape:version="0.47pre4 r22446"
   sodipodi:docname="OSB_vending cigarettes.svg"><metadata
   id="metadata2945"><rdf:RDF><cc:Work
       rdf:about=""><dc:format>image/svg+xml</dc:format><dc:type
         rdf:resource="http://purl.org/dc/dcmitype/StillImage" /><dc:title /></cc:Work></rdf:RDF></metadata><sodipodi:namedview
   pagecolor="#ffffff"
   bordercolor="#666666"
   borderopacity="1"
   objecttolerance="10"
   gridtolerance="10"
   guidetolerance="10"
   inkscape:pageopacity="0"
   inkscape:pageshadow="2"
   inkscape:window-width="1024"
   inkscape:window-height="697"
   id="namedview2943"
   showgrid="false"
   inkscape:zoom="13.005531"
   inkscape:cx="8.0200685"
   inkscape:cy="15.780303"
   inkscape:window-x="0"
   inkscape:window-y="25"
   inkscape:window-maximized="1"
   inkscape:current-layer="svg2" /><defs
   id="defs21"><inkscape:perspective
     sodipodi:type="inkscape:persp3d"
     inkscape:vp_x="0 : 72.584503 : 1"
     inkscape:vp_y="0 : 1000 : 0"
     inkscape:vp_z="166.556 : 72.584503 : 1"
     inkscape:persp3d-origin="83.278 : 48.389669 : 1"
     id="perspective2947" /></defs>
<g
   id="cigarette"
   transform="translate(0,-129.16901)">
</g>
<path
   style="fill:#ffffff;stroke:none;stroke-width:1px;stroke-linecap:butt;stroke-linejoin:miter;stroke-opacity:1"
   d="m 0.30756145,1.2370503 0,3.6907376 C 3.6185747,7.4008114 -4.0801731,8.3865355 3.8082342,15.138833 L 5.9974483,12.924385 C -1.6910637,7.1109935 9.3562496,7.323158 0.30756145,1.2370503 z"
   id="path3220"
   sodipodi:nodetypes="ccccc" /><g
   id="smoke"
   transform="matrix(0.09470929,0,0,0.09470929,0.11279202,1.1252648)">
	<g
   id="g6">
		<rect
   width="154.983"
   height="26"
   x="25.259001"
   y="51.167999"
   transform="matrix(0.7043,-0.7099,0.7099,0.7043,-15.1697,91.9182)"
   id="rect8" />
		<rect
   width="5.7600002"
   height="26"
   x="38.821999"
   y="112.136"
   transform="matrix(0.7043,-0.7099,0.7099,0.7043,-76.5031,66.6061)"
   id="rect10" />
		<rect
   width="5.7589998"
   height="25.999001"
   x="30.488001"
   y="120.971"
   transform="matrix(0.7044,-0.7098,0.7098,0.7044,-85.2301,63.2882)"
   id="rect12" />
		<path
   d="m 30.568,110.314 -4.333,3.667 c 0,0 -15.5,-8.125 -13.667,-24.167 C 13.901,78.148 26.235,74.981 27.401,54.981 28.421,37.482 7.068,26.647 7.068,26.647 l 2.333,-4.833 c 0,0 18.58,7.818 22,26.833 4.167,23.167 -14.167,29.667 -13.667,43.333 0.5,13.666 12.834,18.334 12.834,18.334 z"
   id="path14" />
		<path
   d="m 20.901,119.314 -3.5,3.834 c 0,0 -18.666,-12 -17.333,-32.5 1.333,-20.5 13.667,-21.666 14,-35.333 C 14.401,41.647 1.901,37.981 1.901,37.981 l 2.5,-4.5 c 0,0 15.5,5.333 15,21.667 -0.5,16.334 -12.333,15.833 -14,35.333 -1.667,19.5 15.5,28.833 15.5,28.833 z"
   id="path16" />
		<path
   d="m 38.901,60.481 5.333,-5 c 0,0 0.625,-18.333 -12.125,-32.833 C 20.958,9.967 3.234,5.648 3.234,5.648 l -1.833,5 c 0,0 12.015,1.135 25.333,14.167 15.5,15.166 12.167,35.666 12.167,35.666 z"
   id="path18" />
	</g>
</g>
</svg>