<?xml version="1.0" encoding="UTF-8" standalone="no"?>
<svg
   xmlns:dc="http://purl.org/dc/elements/1.1/"
   xmlns:cc="http://creativecommons.org/ns#"
   xmlns:rdf="http://www.w3.org/1999/02/22-rdf-syntax-ns#"
   xmlns:svg="http://www.w3.org/2000/svg"
   xmlns="http://www.w3.org/2000/svg"
   xmlns:sodipodi="http://sodipodi.sourceforge.net/DTD/sodipodi-0.dtd"
   xmlns:inkscape="http://www.inkscape.org/namespaces/inkscape"
   version="1.1"
   height="16"
   width="16"
   id="svg3723"
   inkscape:version="0.47pre4 r22446"
   sodipodi:docname="OSB_car_rental.svg">
  <metadata
     id="metadata3735">
    <rdf:RDF>
      <cc:Work
         rdf:about="">
        <dc:format>image/svg+xml</dc:format>
        <dc:type
           rdf:resource="http://purl.org/dc/dcmitype/StillImage" />
        <dc:title />
      </cc:Work>
    </rdf:RDF>
  </metadata>
  <defs
     id="defs3733">
    <inkscape:perspective
       sodipodi:type="inkscape:persp3d"
       inkscape:vp_x="0 : 300 : 1"
       inkscape:vp_y="0 : 1000 : 0"
       inkscape:vp_z="1000 : 300 : 1"
       inkscape:persp3d-origin="500 : 200 : 1"
       id="perspective3737" />
    <inkscape:perspective
       id="perspective3621"
       inkscape:persp3d-origin="0.5 : 0.33333333 : 1"
       inkscape:vp_z="1 : 0.5 : 1"
       inkscape:vp_y="0 : 1000 : 0"
       inkscape:vp_x="0 : 0.5 : 1"
       sodipodi:type="inkscape:persp3d" />
    <inkscape:perspective
       id="perspective4402"
       inkscape:persp3d-origin="0.5 : 0.33333333 : 1"
       inkscape:vp_z="1 : 0.5 : 1"
       inkscape:vp_y="0 : 1000 : 0"
       inkscape:vp_x="0 : 0.5 : 1"
       sodipodi:type="inkscape:persp3d" />
    <inkscape:perspective
       id="perspective4544"
       inkscape:persp3d-origin="0.5 : 0.33333333 : 1"
       inkscape:vp_z="1 : 0.5 : 1"
       inkscape:vp_y="0 : 1000 : 0"
       inkscape:vp_x="0 : 0.5 : 1"
       sodipodi:type="inkscape:persp3d" />
  </defs>
  <sodipodi:namedview
     pagecolor="#ffffff"
     bordercolor="#666666"
     borderopacity="1"
     objecttolerance="10"
     gridtolerance="10"
     guidetolerance="10"
     inkscape:pageopacity="0"
     inkscape:pageshadow="2"
     inkscape:window-width="1024"
     inkscape:window-height="697"
     id="namedview3731"
     showgrid="false"
     inkscape:zoom="25.173332"
     inkscape:cx="6.22658"
     inkscape:cy="8.7895196"
     inkscape:window-x="0"
     inkscape:window-y="25"
     inkscape:window-maximized="1"
     inkscape:current-layer="g4182" />
  <g
     transform="matrix(0.85265558,0,0,0.85265558,-1.1604937,2.2019811)"
     id="g4383">
    <path
       style="fill:#000000;stroke:none"
       id="path2301"
       d="m 9.1533024,6.022705 1.3450626,0 c 0.732041,0 1.120463,0.39985 1.299739,0.8676512 l 0.952388,2.4566621 c 0.377253,0.048374 1.045986,0.4917286 1.045986,1.3306147 l 0,3.124681 -0.926155,0 0,0.998943 c 0,1.229484 -1.740139,1.215004 -1.740139,0 l 0,-0.998943 -3.1293561,0 -0.00175,0 0.00182,0 -0.00169,0 -3.1293556,0 0,0.998943 c 0,1.215004 -1.7401398,1.229484 -1.7401398,0 l 0,-0.998943 -0.9261872,0 0,-3.124681 c 0,-0.8388861 0.6680508,-1.2822405 1.0453046,-1.3306147 L 4.2012138,6.8903562 C 4.3804905,6.422555 4.768945,6.022705 5.5009861,6.022705 l 1.3606783,0 2.291638,0 z" />
    <path
       style="fill:#ffffff;stroke:none"
       id="path2315"
       d="m 7.9990747,9.3220196 -0.00175,0 -3.7624732,0 0.7170744,-1.933669 C 5.0415611,7.1167084 5.1760673,6.9205494 5.4898178,6.9176275 l 2.5075038,0 0.00175,0 0.00175,0 2.5087704,0 c 0.313718,0.00292 0.448192,0.1990809 0.53783,0.4707231 l 0.717042,1.933669 -3.7636424,0 -0.00175,0 z" />
    <g
       transform="matrix(0.0324659,0,0,0.0324659,2.203522,0.28205208)"
       id="g2317">
      <g
         id="g2319">
        <path
           style="fill:#ffffff;stroke:none"
           id="path2321"
           d="m 56.18,358.445 c -13.672,0 -24.758,-11.426 -24.758,-25.519 0,-14.092 11.086,-25.517 24.758,-25.517 13.673,0 24.757,11.425 24.757,25.517 0,14.093 -11.084,25.519 -24.757,25.519 z" />
        <path
           style="fill:#ffffff;stroke:none"
           id="path2323"
           d="M 56.18,332.926" />
      </g>
      <g
         id="g2325">
        <path
           style="fill:#ffffff;stroke:none"
           id="path2327"
           d="m 300.881,358.445 c 13.673,0 24.757,-11.426 24.757,-25.519 0,-14.092 -11.084,-25.517 -24.757,-25.517 -13.672,0 -24.758,11.425 -24.758,25.517 0,14.093 11.086,25.519 24.758,25.519 z" />
        <path
           style="fill:#ffffff;stroke:none"
           id="path2329"
           d="M 300.881,332.926" />
      </g>
    </g>
  </g>
  <g
     transform="translate(-0.11018182,0.08930204)"
     id="g4182">
    <path
       transform="matrix(0.01374951,0,0,0.01374951,7.5679048,-4.772722)"
       d="m 582.85715,645.2193 c 0,145.96096 -118.32474,264.2857 -264.28571,264.2857 -145.96096,0 -264.285704,-118.32474 -264.285704,-264.2857 0,-145.96097 118.324744,-264.28571 264.285704,-264.28571 145.96097,0 264.28571,118.32474 264.28571,264.28571 z"
       sodipodi:ry="264.28571"
       sodipodi:rx="264.28571"
       sodipodi:cy="645.2193"
       sodipodi:cx="318.57144"
       id="path2825"
       style="fill:#ffffff;stroke:#000000;stroke-width:72.72986602999999661;stroke-miterlimit:4;stroke-opacity:1;stroke-dasharray:none"
       sodipodi:type="arc" />
    <path
       transform="matrix(0.01374951,0,0,0.01374951,7.666116,-8.7993647)"
       d="m 345.71427,938.07648 c 0,18.93547 -15.35024,34.28571 -34.28571,34.28571 -18.93548,0 -34.28571,-15.35024 -34.28571,-34.28571 0,-18.93548 15.35023,-34.28572 34.28571,-34.28572 18.93547,0 34.28571,15.35024 34.28571,34.28572 z"
       sodipodi:ry="34.285713"
       sodipodi:rx="34.285713"
       sodipodi:cy="938.07648"
       sodipodi:cx="311.42856"
       id="path3599"
       style="fill:#000000;stroke:#000000;stroke-width:0;stroke-miterlimit:4;stroke-opacity:1;stroke-dasharray:none"
       sodipodi:type="arc" />
    <path
       sodipodi:nodetypes="cc"
       id="path3601"
       d="M 11.948106,4.0658613 9.7632542,1.3600864"
       style="fill:none;stroke:#000000;stroke-width:1;stroke-linecap:butt;stroke-linejoin:miter;stroke-miterlimit:4;stroke-opacity:1;stroke-dasharray:none" />
    <path
       sodipodi:nodetypes="cc"
       id="path3605"
       d="M 13.681909,3.2435063 11.91605,3.9722351"
       style="fill:none;stroke:#000000;stroke-width:1;stroke-linecap:butt;stroke-linejoin:miter;stroke-miterlimit:4;stroke-opacity:1;stroke-dasharray:none" />
  </g>
</svg>
